<?xml version="1.0" encoding="UTF-8"?>
<svg width="86px" height="86px" viewBox="0 0 86 86" version="1.1" xmlns="http://www.w3.org/2000/svg" xmlns:xlink="http://www.w3.org/1999/xlink">
    <!-- Generator: Sketch 50.2 (55047) - http://www.bohemiancoding.com/sketch -->
    <title>man</title>
    <desc>Created with Sketch.</desc>
    <defs>
        <circle id="path-1" cx="43" cy="43" r="43"></circle>
    </defs>
    <g id="Page-1" stroke="none" stroke-width="1" fill="none" fill-rule="evenodd">
        <g id="1440-and-under" transform="translate(-677.000000, -33.000000)">
            <g id="Group-7" transform="translate(660.000000, 33.000000)">
                <g id="man" transform="translate(17.000000, 0.000000)">
                    <mask id="mask-2" fill="white">
                        <use xlink:href="#path-1"></use>
                    </mask>
                    <use id="Mask" fill="#EB6D4A" fill-rule="nonzero" xlink:href="#path-1"></use>
                    <g mask="url(#mask-2)" fill-rule="nonzero">
                        <g id="SVGID_1_-link" fill="#EB6D4A">
                            <ellipse id="SVGID_1_" cx="42.8061587" cy="42.068321" rx="42.8061587" ry="42.068321"></ellipse>
                        </g>
                        <path d="M61.8553862,23.6041229 L61.8553862,37.5857556 C61.8553862,37.7883297 61.850381,37.9904565 61.8458307,38.1925834 C61.8367302,38.6111469 61.8130688,39.0292633 61.7757566,39.4429079 C61.7666561,39.5855593 61.7520952,39.7277636 61.7334392,39.8704151 C61.6724656,40.4633801 61.5887407,41.0474015 61.4808995,41.626951 C61.4431323,41.8201342 61.4058201,42.0083984 61.3635026,42.1971097 C61.3589524,42.2382506 61.3498519,42.2753668 61.3402963,42.3120359 C61.3025291,42.505219 61.2556614,42.6939304 61.2092487,42.8821945 C61.1905926,42.983258 61.162381,43.0843214 61.1391746,43.185832 C61.1155132,43.2730327 61.0923069,43.3606807 61.0645503,43.4478814 C60.9658095,43.8248569 60.853873,44.1928888 60.7364762,44.5604734 C60.6805079,44.7353221 60.6245397,44.9052518 60.5635661,45.0801004 C60.5585608,45.0984349 60.5494603,45.1167695 60.5449101,45.135104 C60.4884868,45.2911709 60.4325185,45.4476851 60.3765503,45.6037521 C60.3578942,45.6498119 60.3392381,45.6954246 60.320127,45.7464035 C60.2641587,45.8935268 60.2081905,46.0406501 60.1472169,46.1877734 C60.0771429,46.3670939 60.0025185,46.5419426 59.9274392,46.7167913 C59.8619153,46.8733054 59.7918413,47.0293724 59.7217672,47.1858865 C59.7126667,47.2136119 59.6981058,47.2364183 59.6890053,47.2636964 C59.6093757,47.4291543 59.5347513,47.5950593 59.4551217,47.7555981 C59.3754921,47.9255277 59.2913122,48.0959045 59.202127,48.2662814 C59.0337672,48.6016688 58.8513016,48.9375035 58.668836,49.2639473 C58.5846561,49.4110706 58.5004762,49.5581939 58.4158413,49.7053172 C57.6955344,50.9238917 56.8955979,52.0686809 56.0255873,53.1258222 C55.9081905,53.2774173 55.7871534,53.4245406 55.6606561,53.5671921 C55.487291,53.7737908 55.3093757,53.9763648 55.1319153,54.1740198 C54.9726561,54.3488685 54.8138519,54.52327 54.6500423,54.6936468 C54.2009312,55.1672139 53.7422646,55.6179747 53.2744974,56.0410101 C53.1812169,56.1331298 53.0824762,56.2158587 52.9841905,56.3030595 C52.8253862,56.445711 52.666582,56.5834434 52.5023175,56.716704 C52.3762751,56.8271583 52.2452275,56.9326936 52.1137249,57.038676 C51.7770053,57.3096691 51.4402857,57.5717185 51.0990159,57.8154334 C50.9584127,57.9214158 50.8132593,58.0224792 50.6685608,58.1190708 C50.4346772,58.2845287 50.1962434,58.4410428 49.9573545,58.5926379 C49.8263069,58.6798387 49.690709,58.7625676 49.5546561,58.8408247 C49.0773333,59.1305994 48.5959153,59.3971207 48.1185926,59.6269729 C48.0016508,59.6864483 47.884709,59.741899 47.7677672,59.7969025 C47.6503704,59.8519061 47.5293333,59.9073568 47.402836,59.9623604 C47.248127,60.0312266 47.093873,60.095621 46.939619,60.1555435 C46.8786455,60.1832689 46.817672,60.2060753 46.7571534,60.2244098 C46.5751429,60.298195 46.387672,60.3670612 46.2052063,60.4265366 C45.975873,60.5092655 45.7419894,60.5781318 45.5131111,60.6425261 C45.3538519,60.688586 45.1904974,60.7297269 45.0312381,60.7663959 C45.0216825,60.7713149 45.012582,60.7757868 44.9984762,60.7757868 C44.8392169,60.8124558 44.6804127,60.849572 44.5211534,60.8768502 C44.478836,60.886241 44.4374286,60.8951847 44.3951111,60.8996565 C44.2640635,60.9224629 44.1330159,60.9457164 44.0019683,60.9595791 C43.8149524,60.9873045 43.6279365,61.0101108 43.4409206,61.0195017 C43.3758519,61.0284453 43.3148783,61.0333643 43.2488995,61.0333643 C43.0996508,61.0427552 42.9499471,61.047227 42.8043386,61.047227 L42.7906878,61.047227 C42.6455344,61.047227 42.500381,61.0427552 42.3556825,61.0333643 C42.2992593,61.0333643 42.243291,61.0288925 42.1868677,61.0195017 C42.0562751,61.0150298 41.9202222,61.00072 41.7800741,60.9823855 C41.7518624,60.9823855 41.7191005,60.9779136 41.6913439,60.9734418 C41.5179788,60.9506354 41.3450688,60.9229101 41.1671534,60.8907129 C41.0179048,60.8679065 40.8682011,60.8352621 40.7134921,60.7985931 C39.9135556,60.6192726 39.0904127,60.3482795 38.2577143,59.9847195 C37.5465079,59.6766102 36.8262011,59.3045537 36.1104444,58.8721275 C35.7500635,58.656138 35.3896825,58.4262858 35.0343069,58.1825709 C34.8563915,58.0582539 34.6789312,57.9343841 34.5010159,57.8055953 C33.9440635,57.4053663 33.3921164,56.9689154 32.8492698,56.4998201 C32.7000212,56.3665595 32.5503175,56.2332989 32.4006138,56.0951193 C32.2509101,55.9618586 32.1012063,55.8241262 31.9560529,55.6908656 C31.5906667,55.3460872 31.235291,54.9874462 30.8890159,54.6149426 C30.753418,54.4727383 30.6178201,54.325615 30.4817672,54.1735727 C30.1077354,53.7599281 29.7428042,53.3324209 29.3965291,52.886132 C29.2604762,52.725146 29.1344339,52.5596882 29.0079365,52.3942303 C28.535619,51.7784589 28.0865079,51.134515 27.6651534,50.4677647 C27.5532169,50.2884442 27.4408254,50.1042047 27.3334392,49.9253314 C27.2023915,49.7093419 27.0763492,49.4888805 26.9498519,49.2679719 C26.4820847,48.4402357 26.0511746,47.5807494 25.6771429,46.6930906 C25.6211746,46.5643018 25.5647513,46.435513 25.5178836,46.3071714 C25.4428042,46.1417136 25.3772804,45.9713367 25.3167619,45.8058789 C25.2234815,45.562164 25.1347513,45.3184491 25.0501164,45.0747342 C24.9659365,44.8310193 24.8867619,44.5828326 24.8071323,44.3346459 C24.7320529,44.0954028 24.6619788,43.8566069 24.596455,43.612892 C24.5213757,43.3553145 24.4517566,43.0932651 24.3907831,42.8267438 C24.3857778,42.7990185 24.3766772,42.7717403 24.372127,42.7440149 C24.2833968,42.3764302 24.2037672,42.0039266 24.1336931,41.626951 C24.0399577,41.1301304 23.9653333,40.6243661 23.9089101,40.11413 C23.8857037,39.953144 23.8715979,39.792158 23.8574921,39.631172 C23.838836,39.4612424 23.8251852,39.2953374 23.8156296,39.1254077 C23.7919683,38.8172984 23.7778624,38.5047173 23.7683069,38.1921362 C23.7637566,37.9895622 23.7587513,37.7874353 23.7587513,37.5853085 L23.7587513,23.6041229 C23.7587513,13.2732945 32.2782116,4.89665704 42.7902328,4.88726619 L42.8088889,4.88726619 C44.2595132,4.88726619 45.6719153,5.04780499 47.0283492,5.34697062 C48.2682963,5.62288271 49.4613757,6.01819274 50.5934815,6.51948521 C52.1373862,7.20009818 53.5734497,8.07344714 54.8648148,9.11717295 C55.9500529,9.9909691 56.9374603,10.9747723 57.7979153,12.059639 C60.3396931,15.2413481 61.8553862,19.2458745 61.8553862,23.6041229 Z" id="Shape" fill="#ECC19C"></path>
                        <path d="M67.6228466,89.7680211 L67.6228466,89.7724929 L17.990836,89.7724929 L17.990836,89.7680211 C17.990836,87.0142664 18.4540529,84.3611279 19.314963,81.892229 C19.4692169,81.4463872 19.6375767,81.0050173 19.8200423,80.5681192 L19.8200423,80.5636474 C20.0020529,80.1267493 20.1940741,79.6992421 20.399746,79.2762067 C21.2187937,77.5795933 22.2385079,75.9934342 23.4220317,74.5405357 C23.7214392,74.1774228 24.0253968,73.8232537 24.3393651,73.4829472 C24.493619,73.3080985 24.6574286,73.1381689 24.8212381,72.9682392 C24.9850476,72.8027814 25.1488571,72.6373236 25.3172169,72.4718658 C26.1549206,71.6490485 27.0526878,70.8950975 27.9982328,70.2006218 C28.4705503,69.8558435 28.947873,69.5338715 29.4438519,69.2212904 C29.9398307,68.9131811 30.4449101,68.6189345 30.959545,68.3430224 C30.9691005,68.3340788 30.9782011,68.3340788 30.9782011,68.3340788 C31.1793228,68.2285435 31.3758942,68.1136174 31.5724656,67.9937723 C31.9610582,67.7639201 32.3441905,67.5157333 32.7095767,67.2492121 C32.8965926,67.1204233 33.0745079,66.9871627 33.2519683,66.8445112 C33.6728677,66.5135956 34.0796614,66.1594264 34.468254,65.7869227 C34.5942963,65.663053 34.7212487,65.538736 34.847291,65.4099472 C35.1089312,65.1429788 35.3569206,64.8625949 35.5958095,64.5777391 C35.7132063,64.4400067 35.8301481,64.2973552 35.9375344,64.1547037 C36.0499259,64.0124994 36.1573122,63.8653761 36.2651534,63.7178056 C37.0978519,62.5774883 37.7667407,61.3226919 38.2581693,59.9842723 C38.8524339,58.3565252 39.1750476,56.6049082 39.1750476,54.7750342 L42.7915979,54.7933687 L46.5105291,54.8117032 C46.5105291,56.6183237 46.8240423,58.3516061 47.4042011,59.9610188 C47.8865291,61.3034631 48.554963,62.5587066 49.3740106,63.6990239 C50.2253651,64.884954 51.2405291,65.9425425 52.391291,66.8480887 C52.5646561,66.9862683 52.7375661,67.1195289 52.9109312,67.2433987 C53.079291,67.3677157 53.2522011,67.4871136 53.4301164,67.6020397 C53.4678836,67.6297651 53.5001905,67.6525714 53.5379577,67.675825 C53.7063175,67.7862792 53.8746772,67.8967335 54.0525926,67.9977969 C54.2441587,68.112723 54.4411852,68.2276491 54.6373016,68.3336316 C54.6696085,68.3425752 54.6982751,68.3564379 54.7214815,68.3752196 C55.1332804,68.6006 55.5405291,68.834924 55.9382222,69.0786389 C56.1297884,69.193565 56.3218095,69.312963 56.5088254,69.4466708 C56.897418,69.6948575 57.276455,69.9569069 57.6454815,70.232819 C57.6454815,70.237738 57.6504868,70.237738 57.6504868,70.237738 L57.655037,70.237738 C58.600127,70.9317665 59.4937989,71.6901894 60.3310476,72.508982 C64.8394497,76.9222339 67.6228466,83.0186837 67.6228466,89.7680211 Z" id="Shape" fill="#ECC19C"></path>
                        <path d="M67.6233016,89.7689155 L17.991291,89.7689155 C17.991291,87.0147136 18.454963,84.3620223 19.315418,81.8931233 C19.469672,81.4468344 19.6380317,81.0059117 19.8204974,80.5690136 C19.8154921,80.5640946 19.8204974,80.5640946 19.8204974,80.5640946 C19.9984127,80.1271965 20.1945291,79.6996893 20.4002011,79.2771011 C21.2192487,77.5804877 22.238963,75.9943285 23.4224868,74.54143 C23.7218942,74.17787 24.0263069,73.824148 24.3398201,73.4838415 C24.4940741,73.3089929 24.6578836,73.1390632 24.8216931,72.9691336 C24.9855026,72.8036758 25.1493122,72.6382179 25.317672,72.4727601 C26.1553757,71.6499429 27.0531429,70.8955447 27.9986878,70.2015162 C28.4710053,69.8567379 28.948328,69.5347659 29.4443069,69.2221848 C29.9402857,68.9096037 30.4453651,68.6153571 30.96,68.339445 C30.9695556,68.3305013 30.9786561,68.3349731 30.9786561,68.3349731 L30.9786561,68.3305013 C31.1797778,68.220047 31.3763492,68.1095927 31.5729206,67.9946666 C32.1576296,67.6454165 32.7195873,67.2590501 33.2433228,66.8360147 C33.247873,66.8404866 33.247873,66.8404866 33.2528783,66.8449584 C35.6758942,69.2816602 39.0490053,70.794034 42.7920529,70.8034249 L42.8293651,70.8034249 C46.5719577,70.8034249 49.9591746,69.286132 52.391746,66.8494302 L52.3967513,66.8449584 C52.7284656,67.1159515 53.0747407,67.3690572 53.4305714,67.6033813 C53.4678836,67.6306594 53.5006455,67.653913 53.5379577,67.6767193 C53.7063175,67.7871736 53.8792275,67.8927089 54.0525926,67.9986913 C54.2446138,68.1136174 54.4411852,68.2240717 54.6373016,68.3296069 C54.6700635,68.3385506 54.6932698,68.3568851 54.7214815,68.3707478 C55.1332804,68.5961282 55.5405291,68.8304522 55.9382222,69.0786389 C56.1297884,69.193565 56.3218095,69.312963 56.5088254,69.4466708 C56.897418,69.6903857 57.276455,69.9569069 57.6454815,70.232819 L57.655037,70.232819 C58.6051323,70.9317665 59.4983492,71.6901894 60.3310476,72.5085348 C64.8399048,76.9231282 67.6233016,83.0195781 67.6233016,89.7689155 Z" id="Shape" fill="#C7D4E2"></path>
                        <path d="M61.8553862,37.5857556 C61.8553862,37.7883297 61.850381,37.9904565 61.8458307,38.1925834 C61.8367302,38.6111469 61.8130688,39.0292633 61.7757566,39.4429079 C61.7666561,39.5855593 61.7520952,39.7277636 61.7334392,39.8704151 C61.6724656,40.4633801 61.5887407,41.0474015 61.4808995,41.626951 C61.4431323,41.8201342 61.4058201,42.0083984 61.3635026,42.1971097 C61.3589524,42.2382506 61.3498519,42.2753668 61.3402963,42.3120359 C61.3025291,42.505219 61.2556614,42.6939304 61.2092487,42.8821945 C61.1855873,42.9926488 61.1578307,43.0981841 61.1246138,43.2041665 C61.110963,43.2868954 61.0873016,43.3696243 61.0640952,43.4478814 C60.9653545,43.8248569 60.853418,44.1928888 60.7360212,44.5604734 C60.6800529,44.7353221 60.6240847,44.9052518 60.5631111,45.0801004 C60.5581058,45.0984349 60.5490053,45.1167695 60.544455,45.135104 C60.4880317,45.2911709 60.4320635,45.4476851 60.3760952,45.6037521 C60.3574392,45.6498119 60.3387831,45.6954246 60.319672,45.7464035 C60.2637037,45.8935268 60.2077354,46.0406501 60.1467619,46.1877734 C60.0766878,46.3670939 60.0020635,46.5419426 59.9269841,46.7167913 C59.8614603,46.8733054 59.7913862,47.0293724 59.7213122,47.1858865 C59.7122116,47.2136119 59.6976508,47.2364183 59.6885503,47.2636964 C59.6089206,47.4291543 59.5342963,47.5950593 59.4546667,47.7555981 C59.375037,47.9255277 59.2908571,48.0959045 59.201672,48.2662814 C59.0333122,48.6016688 58.8508466,48.9375035 58.668381,49.2639473 C58.5842011,49.4110706 58.5000212,49.5581939 58.4153862,49.7053172 C57.6950794,50.9238917 56.8951429,52.0686809 56.0251323,53.1258222 C55.9077354,53.2774173 55.7866984,53.4245406 55.6602011,53.5671921 C55.486836,53.7737908 55.3089206,53.9763648 55.1314603,54.1740198 C54.9722011,54.3488685 54.8133968,54.52327 54.6495873,54.6936468 C54.2004762,55.1672139 53.7418095,55.6179747 53.2740423,56.0410101 C53.1807619,56.1331298 53.0820212,56.2158587 52.9837354,56.3030595 C52.8249312,56.445711 52.666127,56.5834434 52.5018624,56.716704 C52.3758201,56.8271583 52.2447725,56.9326936 52.1132698,57.038676 C51.7765503,57.3096691 51.4398307,57.5717185 51.0985608,57.8154334 C50.9579577,57.9214158 50.8128042,58.0224792 50.6681058,58.1190708 C50.4342222,58.2845287 50.1957884,58.4410428 49.9568995,58.5926379 C49.8258519,58.6798387 49.690254,58.7625676 49.5542011,58.8408247 C49.0768783,59.1305994 48.5954603,59.3971207 48.1181376,59.6269729 C48.0011958,59.6864483 47.884254,59.741899 47.7673122,59.7969025 C47.6499153,59.8519061 47.5288783,59.9073568 47.402381,59.9623604 C47.247672,60.0312266 47.093418,60.095621 46.939164,60.1555435 C46.8781905,60.1832689 46.8172169,60.2060753 46.7566984,60.2244098 C46.5746878,60.298195 46.3872169,60.3670612 46.2047513,60.4265366 C45.975418,60.5092655 45.7415344,60.5781318 45.5126561,60.6425261 C45.3533968,60.688586 45.1900423,60.7297269 45.0307831,60.7663959 C45.0212275,60.7713149 45.012127,60.7757868 44.9980212,60.7757868 C44.8387619,60.8124558 44.6799577,60.849572 44.5206984,60.8768502 C44.478381,60.886241 44.4369735,60.8951847 44.3946561,60.8996565 C44.2636085,60.9224629 44.1325608,60.9457164 44.0015132,60.9595791 C43.8144974,60.9873045 43.6274815,61.0101108 43.4404656,61.0195017 C43.3753968,61.0284453 43.3144233,61.0333643 43.2484444,61.0333643 C43.0991958,61.0427552 42.9494921,61.047227 42.8038836,61.047227 L42.7902328,61.047227 C42.6450794,61.047227 42.4999259,61.0427552 42.3552275,61.0333643 C42.2988042,61.0333643 42.242836,61.0288925 42.1864127,61.0195017 C42.0558201,61.0150298 41.9197672,61.00072 41.779619,60.9823855 C41.7514074,60.9823855 41.7186455,60.9779136 41.6908889,60.9734418 C41.5175238,60.9506354 41.3446138,60.9229101 41.1666984,60.8907129 C41.0174497,60.8679065 40.867746,60.8352621 40.713037,60.7985931 C39.9131005,60.6192726 39.0899577,60.3482795 38.2572593,59.9847195 C37.5460529,59.6766102 36.825746,59.3045537 36.1099894,58.8721275 C35.7496085,58.6606098 35.3942328,58.4307576 35.0338519,58.1825709 C34.8559365,58.0582539 34.6784762,57.9343841 34.5005608,57.8055953 C33.9436085,57.4053663 33.3916614,56.9689154 32.8488148,56.4998201 C32.6995661,56.3665595 32.5498624,56.2332989 32.4001587,56.0951193 C32.250455,55.9618586 32.1007513,55.8241262 31.9555979,55.6908656 C31.5902116,55.3460872 31.234836,54.9874462 30.8885608,54.6149426 C30.752963,54.4727383 30.6173651,54.325615 30.4813122,54.1735727 C30.1072804,53.7599281 29.7423492,53.3324209 29.3960741,52.886132 C29.2600212,52.725146 29.1339788,52.5596882 29.0074815,52.3942303 C28.535164,51.7784589 28.0860529,51.134515 27.6646984,50.4677647 C27.5527619,50.2884442 27.4403704,50.1042047 27.3329841,49.9253314 C27.2019365,49.7093419 27.0758942,49.4888805 26.9493968,49.2679719 C26.4816296,48.4402357 26.0507196,47.5807494 25.6766878,46.6930906 C25.6207196,46.5643018 25.5642963,46.435513 25.5174286,46.3071714 C25.4423492,46.1417136 25.3768254,45.9713367 25.3163069,45.8058789 C25.2230265,45.562164 25.1342963,45.3184491 25.0496614,45.0747342 C24.9654815,44.8310193 24.8863069,44.5828326 24.8066772,44.3346459 C24.7315979,44.0954028 24.6615238,43.8566069 24.596,43.612892 C24.5209206,43.3553145 24.4513016,43.0932651 24.390328,42.8267438 C24.3853228,42.7990185 24.3762222,42.7717403 24.371672,42.7440149 C24.2829418,42.3764302 24.2033122,42.0039266 24.1332381,41.626951 C24.0395026,41.1301304 23.9648783,40.6243661 23.908455,40.11413 C23.8852487,39.953144 23.8711429,39.792158 23.857037,39.631172 C23.838381,39.4612424 23.8247302,39.2953374 23.8151746,39.1254077 C23.7915132,38.8172984 23.7774074,38.5047173 23.7678519,38.1921362 C23.7633016,37.9895622 23.7582963,37.7874353 23.7582963,37.5853085 L26.7996931,43.4612969 L32.0252169,45.7003436 L38.2049312,46.247696 L42.7897778,46.6568687 L42.8179894,46.6568687 L47.1079788,47.0387632 L56.6658095,47.884834 L61.8553862,37.5857556 Z" id="Shape" fill="#543E36"></path>
                        <path d="M57.7988254,12.059639 C56.8678413,14.1332279 55.6561058,16.0596935 54.2245926,17.8068387 C54.1404127,17.9083493 54.0562328,18.0094127 53.9675026,18.1104761 C51.0344021,21.5815128 47.1889735,24.2807112 42.7911429,25.8574795 C41.6353757,26.276043 40.4427513,26.6159023 39.2169101,26.8690081 C38.3983175,27.0389377 37.565619,27.1726455 36.7188148,27.2692371 C35.7455132,27.3747724 34.7540106,27.4302231 33.7484021,27.4302231 C32.5976402,27.4302231 31.4700847,27.3564379 30.3616402,27.2142336 C29.2759471,27.0809729 28.2139153,26.8833179 27.175545,26.6167967 C26.5812804,26.4696734 26.0011217,26.2997437 25.4255132,26.1110324 C24.8594603,25.9272401 24.3075132,25.724666 23.7601164,25.5042047 L23.7601164,23.6054644 C23.7601164,13.274636 32.2795767,4.89799859 42.7915979,4.88860774 L42.810254,4.88860774 C44.2608783,4.88860774 45.6732804,5.04914654 47.0297143,5.34831217 C48.2696614,5.62422426 49.4627407,6.01953429 50.5948466,6.52082676 C52.1387513,7.20143972 53.5748148,8.07478869 54.8661799,9.1185145 C55.950963,9.99052191 56.9383704,10.9747723 57.7988254,12.059639 Z" id="Shape" fill="#543E36"></path>
                        <path d="M61.8553862,23.6041229 L61.8553862,27.2866773 C58.6083175,24.8177783 55.9186561,21.6959917 53.9770582,18.1283635 C53.9725079,18.1238916 53.9725079,18.1145008 53.9675026,18.1100289 C52.0591217,14.606795 50.8751429,10.6756067 50.5948466,6.51903802 C52.1387513,7.19965099 53.5748148,8.07299996 54.8661799,9.11672576 C55.951418,9.99052191 56.9388254,10.9743252 57.7992804,12.0591918 C60.3396931,15.2413481 61.8553862,19.2458745 61.8553862,23.6041229 Z" id="Shape" fill="#543E36"></path>
                        <path d="M25.9911111,25.0480777 C25.7904444,25.392856 25.6075238,25.7470252 25.4250582,26.110138 C25.3554392,26.2523423 25.2849101,26.4043846 25.214836,26.5515079 C24.2934074,28.5651743 23.8297354,30.5421716 23.7642116,32.326433 C23.7642116,32.3769647 23.7592063,32.4319682 23.7592063,32.4829471 L23.7592063,25.2734581 C23.7592063,25.0158805 23.7687619,24.7627748 23.7687619,24.514588 C24.5081799,24.7032994 25.2471429,24.8870917 25.9911111,25.0480777 Z" id="Shape" fill="#543E36"></path>
                        <path d="M59.633037,25.0480777 C59.9160635,25.536849 60.1686032,26.0376943 60.4111323,26.5510607 C61.3612275,28.6273328 61.8262646,30.655309 61.8663069,32.4842887 L61.8663069,25.2712222 C61.8663069,25.0176692 61.8567513,24.7641163 61.8567513,24.5163768 C61.1182434,24.7037466 60.3806455,24.8848558 59.633037,25.0480777 Z" id="Shape" fill="#543E36"></path>
                        <path d="M59.5957249,26.9056771 C59.5957249,26.82742 59.5347513,26.7585538 59.4551217,26.7491629 C58.7816825,26.6480995 55.7498413,26.2384796 52.4891217,26.2384796 C48.7883915,26.2384796 44.0119788,27.378797 43.1792804,27.378797 L42.4403175,27.378797 C42.0517249,27.378797 40.8076825,27.1306103 39.2169101,26.8685609 C37.3877037,26.5649234 35.104836,26.2384796 33.1304762,26.2384796 C30.7447725,26.2384796 28.4801058,26.4593882 27.1750899,26.6154551 C26.6977672,26.6709059 26.3469418,26.7209904 26.1644762,26.7487158 C26.0848466,26.7581066 26.023873,26.8269728 26.023873,26.9052299 L25.9865608,28.8589737 C25.9865608,28.9278399 26.0288783,28.9877625 26.0939471,29.0154879 L26.3182751,29.0937449 C26.6504444,29.2180619 26.6226878,35.1074658 28.4095767,36.5786989 C29.4716085,37.447576 30.4166984,37.9439495 34.3977249,37.9439495 C36.704254,37.9439495 38.1544233,37.3326499 39.5299683,35.5072477 C40.5219259,34.1970007 41.401037,31.0980205 41.401037,31.0980205 C41.6676825,29.8199706 42.6359788,29.7189072 42.7906878,29.7095163 C42.8002434,29.7095163 42.8093439,29.7095163 42.8093439,29.7095163 C42.8416508,29.7095163 43.9323492,29.7278508 44.2176508,31.0980205 C44.2176508,31.0980205 45.0972169,34.1970007 46.0887196,35.5072477 C47.4638095,37.3326499 48.9144339,37.9439495 51.2205079,37.9439495 C55.2019894,37.9439495 56.1466243,37.447576 57.2086561,36.5786989 C58.996,35.1074658 58.9677884,29.2180619 59.2999577,29.0937449 L59.5247407,29.0154879 C59.5898095,28.9877625 59.632127,28.9282871 59.632127,28.8589737 L59.5957249,26.9056771 Z M39.5304233,33.8754759 C38.9457143,35.2362546 37.4345714,36.9927906 35.3059577,37.0983259 C28.9201164,37.4153788 28.6252593,35.6637619 28.2134603,34.2752577 C27.7971111,32.8867536 27.6897249,31.6681791 27.8530794,30.279675 C28.0214392,28.8911709 28.3772698,28.0772973 29.0184021,27.6681246 C29.2941481,27.4888041 29.5940106,27.3278181 30.3611852,27.212892 C31.0487302,27.1118286 32.1107619,27.051906 33.8789947,27.051906 C34.9032593,27.051906 35.862455,27.1301631 36.7183598,27.2678956 C38.992127,27.6265366 40.5264762,28.3854066 40.5264762,29.1344386 C40.5264762,29.6455691 40.3954286,31.8613623 39.5304233,33.8754759 Z M57.4056825,34.2752577 C56.9943386,35.6637619 56.6994815,37.4153788 50.3136402,37.0983259 C48.1850265,36.9927906 46.6738836,35.2362546 46.0891746,33.8754759 C45.2237143,31.8618095 45.0931217,29.6455691 45.0931217,29.135333 C45.0931217,28.1054699 48.0030159,27.0523532 51.7406032,27.0523532 C55.4786455,27.0523532 56.0770053,27.3282653 56.6016508,27.6685718 C57.242328,28.0777445 57.5977037,28.8916181 57.7665185,30.2801222 C57.930328,31.6686263 57.8224868,32.8872008 57.4056825,34.2752577 Z" id="Shape" fill="#1A1A1A"></path>
                        <g id="Group" transform="translate(23.661376, 31.750014)" fill="#543E36">
                            <path d="M19.1670794,8.78715168 L19.1620741,13.3206959 L19.1575238,14.906855 L19.1575238,16.1527077 L19.1525185,20.2904947 L19.1525185,20.2949665 L19.1479683,20.2904947 L19.142963,20.2904947 L19.1293122,20.2811038 L0.729862434,11.0771773 C0.724857143,11.0494519 0.715756614,11.0221738 0.711206349,10.9944484 C0.62247619,10.6268637 0.542846561,10.2543601 0.472772487,9.87738454 C0.379037037,9.3805639 0.304412698,8.8747996 0.247989418,8.36456347 C0.224783069,8.20357748 0.210677249,8.0425915 0.196571429,7.88160551 C0.177915344,7.71167586 0.16426455,7.54577086 0.154708995,7.37584121 C0.131047619,7.06773192 0.116941799,6.7551508 0.107386243,6.44256968 C0.102835979,6.23999565 0.0978306878,6.0378688 0.0978306878,5.83574195 L0.0978306878,0.341648035 C0.0978306878,0.419905111 0.102835979,0.498162187 0.102835979,0.575972079 C0.140148148,1.90455364 0.355375661,3.366843 0.771724868,4.86088238 C1.09479365,6.01014344 1.49703704,7.07220375 1.96480423,8.01933796 L1.96480423,8.0238098 C3.1906455,10.529825 4.83283598,12.230463 6.34352381,12.5063751 C6.43725926,12.5202378 6.53554497,12.5291815 6.62928042,12.5385723 C7.21398942,12.6029667 7.82691005,12.6396357 8.45848677,12.6396357 C10.8441905,12.6396357 12.9637037,10.7547582 14.2969312,9.99141628 C14.3064868,9.98694445 14.3155873,9.98202543 14.3251429,9.9775536 C14.3952169,9.93596555 14.465746,9.89482469 14.5262646,9.85323664 C14.5449206,9.83937396 14.5635767,9.8304303 14.5822328,9.82103945 C15.7052381,9.19095819 17.3237672,8.79117633 19.1297672,8.78670449 L19.1670794,8.78670449 L19.1670794,8.78715168 Z" id="Shape"></path>
                            <path d="M38.1981058,0.341648035 L38.1935556,5.83574195 C38.1935556,7.21530241 38.0625079,8.56669031 37.8195238,9.87738454 C37.7207831,10.4014834 37.6088466,10.9206632 37.4777989,11.4358183 L33.1595979,17.5644653 L19.1529735,20.2909418 L19.1484233,20.2909418 L19.143418,20.2954137 L19.143418,20.2909418 L19.1297672,8.78625731 L19.1670794,8.78625731 C20.9730794,8.79072914 22.5961587,9.19095819 23.719164,9.82059226 C23.7378201,9.82998311 23.7514709,9.83892678 23.770582,9.85278946 C23.8361058,9.89437751 23.9061799,9.93551837 23.976254,9.97710641 C23.9808042,9.98157825 23.9899048,9.98649726 23.9994603,9.9909691 C25.3376931,10.754311 27.4522011,12.6405301 29.8383598,12.6405301 C30.4699365,12.6405301 31.0824021,12.6038611 31.6671111,12.5394667 C31.7653968,12.5300758 31.8591323,12.5211322 31.957418,12.5072695 C33.4640106,12.2313574 35.1107513,10.5302721 36.3315873,8.02470416 L36.3315873,8.02023233 C36.7988995,7.07309812 37.2015979,6.0110378 37.5242116,4.86177674 C37.9455661,3.34448384 38.1653439,1.86430714 38.1935556,0.516943885 C38.1981058,0.456574141 38.1981058,0.401123412 38.1981058,0.341648035 Z" id="Shape"></path>
                        </g>
                        <ellipse id="Oval" fill="#ECC19C" cx="42.8061587" cy="46.4869391" rx="4.6662963" ry="1.41757103"></ellipse>
                        <g id="Group" transform="translate(26.846561, 69.313410)" fill="#435363">
                            <path d="M2.33474074,0.0778098927 L2.33474074,25.3696025 L0.346730159,25.3696025 L0.346730159,1.50343023 C0.613375661,1.29191253 0.880021164,1.08486666 1.15167196,0.88721165 C1.53980952,0.602355894 1.93249735,0.335387469 2.33474074,0.0778098927 Z" id="Shape"></path>
                            <polygon id="Shape" points="29.5862751 0.0827289089 29.5862751 20.4546109 29.5862751 25.3696025 31.5742857 25.3696025 31.5742857 20.4546109 31.5742857 1.50790206"></polygon>
                        </g>
                        <g id="Group" transform="translate(32.306878, 63.500027)">
                            <g transform="translate(5.005291, 4.024650)" fill="#141720" id="Shape">
                                <polygon points="0.0514179894 0.318841687 5.49398942 6.72966135 10.9370159 0.318841687"></polygon>
                                <path d="M5.49398942,33.2869827 L2.2755873,33.2869827 L4.60077249,3.86232209 C4.69860317,4.2366145 6.28983069,4.2366145 6.38766138,3.86232209 L8.71284656,33.2869827 L5.49398942,33.2869827 Z"></path>
                            </g>
                            <g fill="#E7ECF2" id="Shape">
                                <path d="M10.4974603,4.30995256 L10.4838095,4.33275891 L10.4788042,4.34214976 L8.21914286,8.07076404 L6.10918519,11.5462726 L0.396783069,3.7442657 C0.579248677,3.61547691 0.761714286,3.47774446 0.935079365,3.33509299 C0.93962963,3.33956482 0.93962963,3.33956482 0.944634921,3.34448384 C2.09039153,2.44788134 3.11056085,1.39521187 3.95736508,0.218225446 L10.4838095,4.3010089 L10.4974603,4.30995256 Z"></path>
                                <path d="M20.6026878,3.7442657 L14.8902857,11.5462726 L12.780328,8.07076404 L10.5156614,4.34214976 L10.4970053,4.30995256 L17.0657672,0.199890931 C17.9171217,1.38582102 18.9322857,2.4434095 20.0830476,3.34895567 C20.2568677,3.48668812 20.4293228,3.62039593 20.6026878,3.7442657 Z"></path>
                            </g>
                        </g>
                    </g>
                </g>
            </g>
        </g>
    </g>
</svg>