<?xml version="1.0" encoding="UTF-8"?>
<svg width="86px" height="86px" viewBox="0 0 86 86" version="1.1" xmlns="http://www.w3.org/2000/svg" xmlns:xlink="http://www.w3.org/1999/xlink">
    <!-- Generator: Sketch 50.2 (55047) - http://www.bohemiancoding.com/sketch -->
    <title>man (2)</title>
    <desc>Created with Sketch.</desc>
    <defs>
        <circle id="path-1" cx="42.8061587" cy="42.8061587" r="42.8061587"></circle>
    </defs>
    <g id="Page-1" stroke="none" stroke-width="1" fill="none" fill-rule="evenodd">
        <g id="1440-and-under" transform="translate(-166.000000, -217.000000)">
            <g id="Group-3" transform="translate(166.000000, 217.000000)">
                <g id="man-(2)">
                    <mask id="mask-2" fill="white">
                        <use xlink:href="#path-1"></use>
                    </mask>
                    <use id="Mask" fill="#E1854F" fill-rule="nonzero" xlink:href="#path-1"></use>
                    <g mask="url(#mask-2)" fill-rule="nonzero">
                        <g id="SVGID_1_-link" fill="#E1854F">
                            <circle id="SVGID_1_" cx="42.8061587" cy="42.8061587" r="42.8061587"></circle>
                        </g>
                        <g id="Group" transform="translate(17.291005, 4.550265)">
                            <path d="M50.3332063,86.7953862 L50.3332063,86.8003915 L0.701195767,86.8003915 L0.701195767,86.7953862 C0.701195767,83.9933333 1.1644127,81.2936614 2.02532275,78.7814603 C2.17957672,78.3277989 2.34839153,77.8791429 2.53040212,77.434127 L2.53040212,77.4295767 C2.70831746,76.9850159 2.90443386,76.5500106 3.11056085,76.1195556 C3.92915344,74.3931852 4.94886772,72.7792063 6.13284656,71.3008254 C6.43225397,70.9308889 6.73621164,70.570963 7.04972487,70.2251429 C7.20397884,70.0467725 7.36778836,69.8743175 7.53159788,69.7009524 C7.69540741,69.5325926 7.85921693,69.3642328 8.02757672,69.195873 C8.8648254,68.3586243 9.76304762,67.5914497 10.7081376,66.8847937 C11.1809101,66.5339683 11.6577778,66.2068042 12.1537566,65.8887407 C12.3639788,65.7531429 12.5792063,65.6220952 12.7944339,65.4960529 C12.9204762,65.4209735 13.0424233,65.3463492 13.1684656,65.2712698 C13.2248889,65.2430582 13.2763069,65.2153016 13.3322751,65.1825397 C13.4446667,65.1170159 13.5566032,65.0564974 13.6689947,64.9955238 C13.6785503,64.9864233 13.6876508,64.9864233 13.6876508,64.9864233 C13.8887725,64.879037 14.0848889,64.7620952 14.2819153,64.6401481 C14.8666243,64.2893228 15.428127,63.9011852 15.961418,63.4707302 C16.7426984,62.848709 17.4680106,62.1516085 18.1182434,61.3889841 C18.7029524,60.7059894 19.2316931,59.9715767 19.6903598,59.1902963 C20.2004444,58.3389418 20.6304444,57.4361693 20.967619,56.4906243 C21.1359788,56.0133016 21.2856825,55.5268783 21.4076296,55.0263492 C21.5013651,54.6755238 21.5759894,54.3196931 21.6415132,53.9593122 C21.8003175,53.0610899 21.8844974,52.1346561 21.8844974,51.1900212 L25.5010476,51.2086772 L25.5197037,51.2086772 L26.1512804,51.2132275 L29.2199788,51.2273333 C29.2199788,52.1533122 29.2996085,53.0610899 29.4538624,53.9456614 C29.514836,54.3105926 29.5944656,54.6709735 29.687746,55.0263492 C29.8046878,55.5173228 29.9498413,55.9996508 30.1136508,56.466963 C30.4503704,57.4216085 30.8762751,58.3339365 31.3859048,59.1898413 C31.802254,59.9010476 32.2750265,60.5699365 32.7987619,61.2015132 C33.4817566,62.0387619 34.2539365,62.796836 35.1007407,63.4748254 C35.2786561,63.6199788 35.4561164,63.760582 35.639037,63.8911746 C35.8023915,64.0131217 35.9707513,64.1296085 36.1395661,64.242 C36.1768783,64.2702116 36.2096402,64.293418 36.2469524,64.3166243 C36.4153122,64.4290159 36.583672,64.5414074 36.7615873,64.6442434 C36.9531534,64.7616402 37.1501799,64.878582 37.3462963,64.9859683 C37.3790582,64.9950688 37.4072698,65.0096296 37.4304762,65.0282857 C37.8422751,65.257619 38.2490688,65.4960529 38.6467619,65.7440423 C38.8387831,65.8609841 39.0303492,65.9824762 39.2178201,66.1180741 C39.6059577,66.3660635 39.9849947,66.6372593 40.3544762,66.9180106 C40.3544762,66.9230159 40.3594815,66.9230159 40.3594815,66.9230159 L40.3640317,66.9230159 C40.8368042,67.2738413 41.2950159,67.647873 41.744127,68.0319153 C42.1932381,68.4155026 42.6236931,68.8182011 43.0400423,69.2345503 C47.5498095,73.7247513 50.3332063,79.928127 50.3332063,86.7953862 Z" id="Shape" fill="#ECC19C"></path>
                            <path d="M50.3332063,86.7953862 L0.701195767,86.7953862 C0.701195767,83.9933333 1.1644127,81.2936614 2.02532275,78.7814603 C2.17957672,78.3277989 2.34839153,77.8791429 2.53040212,77.434127 L2.53040212,77.4295767 C2.70831746,76.9850159 2.90443386,76.5500106 3.11056085,76.1195556 C3.92915344,74.3931852 4.94886772,72.7792063 6.13284656,71.3008254 C6.43225397,70.9308889 6.73621164,70.570963 7.04972487,70.2251429 C7.20397884,70.0467725 7.36778836,69.8743175 7.53159788,69.7009524 C7.69540741,69.5325926 7.85921693,69.3642328 8.02757672,69.195873 C8.8648254,68.3586243 9.76304762,67.5914497 10.7081376,66.8847937 C11.1809101,66.5339683 11.6577778,66.2068042 12.1537566,65.8887407 C12.3639788,65.7531429 12.5792063,65.6220952 12.7944339,65.4960529 C12.9204762,65.4209735 13.0424233,65.3463492 13.1684656,65.2712698 C13.2248889,65.2430582 13.2763069,65.2153016 13.3322751,65.1825397 C13.4446667,65.1170159 13.5566032,65.0514921 13.6689947,64.9909735 C13.6785503,64.981418 13.6876508,64.9859683 13.6876508,64.9859683 L13.6876508,64.981418 C13.8887725,64.8690265 14.0848889,64.7566349 14.2819153,64.6396931 C14.8666243,64.2843175 15.428127,63.8907196 15.9518624,63.4607196 C15.9564127,63.4652698 15.9564127,63.4652698 15.961418,63.4702751 C18.3848889,65.9497143 21.758,67.4890688 25.5005926,67.4986243 L25.5379048,67.4986243 C25.7440317,67.4986243 25.9497037,67.493619 26.1508254,67.4799683 C29.6499788,67.3252593 32.8033122,65.8191217 35.1002857,63.4748254 L35.104836,63.4702751 C35.4370053,63.7460212 35.7832804,64.0035661 36.1386561,64.242 C36.1759683,64.2702116 36.2087302,64.293418 36.2460423,64.3166243 C36.4144021,64.4290159 36.5873122,64.5364021 36.7606772,64.6442434 C36.9522434,64.7616402 37.1492698,64.8735767 37.3453862,64.981418 C37.3781481,64.9909735 37.4018095,65.0096296 37.4295661,65.0232804 C37.8413651,65.2526138 38.2481587,65.4910476 38.6458519,65.7440423 C38.837873,65.8609841 39.0294392,65.9824762 39.2169101,66.1180741 C39.6050476,66.3660635 39.9840847,66.6372593 40.3535661,66.9180106 L40.3631217,66.9180106 C40.8358942,67.2733862 41.2986561,67.6433228 41.7432169,68.0314603 C42.192328,68.4150476 42.6227831,68.817746 43.0391323,69.2340952 C47.5498095,73.7247513 50.3332063,79.928127 50.3332063,86.7953862 Z" id="Shape" fill="#5AB7B2"></path>
                            <path d="M33.1828042,57.1444974 L33.1828042,59.993873 C33.1828042,60.4425291 33.0422011,60.8588783 32.7992169,61.2006032 C32.4201799,61.7525503 31.7840529,62.1129312 31.063746,62.1129312 L19.7090159,62.1129312 C19.0728889,62.1129312 18.5022857,61.8321799 18.1182434,61.387619 C17.7906243,61.0135873 17.5895026,60.526709 17.5895026,59.993873 L17.5895026,57.1444974 C17.5895026,56.3395556 18.0386138,55.6379048 18.6984021,55.2825291 C18.9978095,55.1187196 19.3440847,55.0249841 19.7090159,55.0249841 L31.063291,55.0249841 C31.4846455,55.0249841 31.8727831,55.1464762 32.1999471,55.3617037 C32.7896614,55.7320952 33.1828042,56.3959788 33.1828042,57.1444974 Z" id="Shape" fill="#5AB7B2"></path>
                            <path d="M35.639037,63.8902646 L35.639037,70.1031958 L12.7948889,70.1031958 L12.7948889,65.4951429 C12.9209312,65.4200635 13.0428783,65.3454392 13.1689206,65.2703598 C13.2253439,65.2421481 13.2767619,65.2143915 13.3327302,65.1816296 C13.4451217,65.1161058 13.5570582,65.0555873 13.6694497,64.9946138 C13.6790053,64.9855132 13.6881058,64.9855132 13.6881058,64.9855132 C13.8892275,64.878127 14.0853439,64.7611852 14.2823704,64.6392381 C14.8670794,64.2884127 15.428582,63.9002751 15.961873,63.4698201 C16.7431534,62.8477989 17.4684656,62.1506984 18.1186984,61.3880741 C18.7034074,60.7050794 19.2321481,59.9706667 19.6908148,59.1893862 L31.3863598,59.1893862 C31.802709,59.9005926 32.2754815,60.5694815 32.7992169,61.2010582 C33.4822116,62.0383069 34.2543915,62.796381 35.1011958,63.4743704 C35.2786561,63.6195238 35.4561164,63.759672 35.639037,63.8902646 Z" id="Shape" fill="#5AB7B2"></path>
                            <path d="M50.618963,27.3534603 C50.618963,37.6174921 45.2623915,46.543746 37.3790582,51.0817249 C34.951037,52.4850265 32.2800317,53.4674286 29.4538624,53.9447513 C28.3731746,54.1317672 27.2692804,54.2391534 26.1512804,54.2673651 C25.9406032,54.2723704 25.730381,54.2764656 25.5197037,54.2764656 L25.5151534,54.2764656 C24.1960317,54.2764656 22.9046667,54.1690794 21.6415132,53.9584021 C18.7921376,53.4860847 16.1070265,52.4991323 13.6603492,51.0858201 C5.7774709,46.5528466 0.41589418,37.6215873 0.41589418,27.3530053 C0.41589418,12.8549524 11.0917249,1.03291005 24.4717778,0.452751323 C24.4904339,0.448201058 24.5045397,0.448201058 24.5231958,0.448201058 C24.6542434,0.443650794 24.785291,0.438645503 24.9163386,0.434095238 C25.1129101,0.429544974 25.3044762,0.424994709 25.5010476,0.424994709 L25.5197037,0.424994709 C25.7208254,0.424994709 25.9219471,0.429544974 26.1230688,0.434095238 L26.1653862,0.434095238 C26.3055344,0.438645503 26.4461376,0.443650794 26.5862857,0.452751323 L26.6003915,0.452751323 C26.6659153,0.457301587 26.7314392,0.462306878 26.796963,0.466857143 C26.8765926,0.471407407 26.9562222,0.476412698 27.0353968,0.480962963 C40.1906667,1.3277672 50.618963,13.0283175 50.618963,27.3534603 Z" id="Shape" fill="#141720"></path>
                            <path d="M44.564836,19.470127 L44.564836,33.6969841 C44.564836,33.9031111 44.5602857,34.1087831 44.5557354,34.314455 C44.5511852,34.4828148 44.5461799,34.6466243 44.5366243,34.8149841 C44.5320741,34.9646878 44.5225185,35.1143915 44.5084127,35.2640952 C44.5038624,35.3714815 44.4943069,35.4793228 44.4852063,35.587164 C44.4806561,35.6526878 44.4761058,35.7136614 44.4665503,35.7787302 C44.4569947,35.895672 44.4474392,36.017164 44.4287831,36.1341058 C44.410127,36.3588889 44.3819153,36.5786667 44.3491534,36.8034497 C44.3446032,36.859418 44.3350476,36.9158413 44.3259471,36.9718095 C44.3118413,37.0842011 44.2931852,37.1961376 44.2745291,37.3085291 L44.2745291,37.3226349 C44.2463175,37.4864444 44.2185608,37.6452487 44.1903492,37.8090582 C44.1484868,38.0333862 44.1061693,38.2581693 44.0593016,38.4779471 C44.0547513,38.4875026 44.0547513,38.4966032 44.049746,38.5061587 C44.0451958,38.5389206 44.0406455,38.5716825 44.0310899,38.6044444 C44.0265397,38.614 44.0265397,38.6231005 44.0219894,38.6326561 C43.9987831,38.7541481 43.9705714,38.8710899 43.9423598,38.9880317 C43.9328042,39.0394497 43.9237037,39.0908677 43.9050476,39.1422857 C43.8909418,39.2264656 43.8677354,39.3106455 43.8486243,39.3948254 C43.8345185,39.4416931 43.825418,39.4931111 43.8067619,39.5395238 C43.7972063,39.5818413 43.7831005,39.6241587 43.774,39.6614709 C43.6757143,40.0450582 43.5637778,40.4190899 43.446381,40.7935767 C43.3904127,40.9714921 43.3339894,41.1444021 43.2734709,41.3223175 C43.2689206,41.3409735 43.2593651,41.3596296 43.2548148,41.3787407 C43.1983915,41.537545 43.1424233,41.6968042 43.086455,41.8556085 C43.0677989,41.9024762 43.0491429,41.9488889 43.0300317,42.0007619 C42.9740635,42.1504656 42.9176402,42.3001693 42.8571217,42.449873 C42.7870476,42.6323386 42.7119683,42.810254 42.6373439,42.9881693 C42.5718201,43.1474286 42.501746,43.3062328 42.431672,43.4654921 C42.4221164,43.4937037 42.4084656,43.5169101 42.3989101,43.5451217 C42.3192804,43.7134815 42.2446561,43.8818413 42.1650265,44.0456508 C42.0853968,44.2185608 42.0012169,44.3919259 41.9124868,44.564836 C41.744127,44.9065608 41.5616614,45.2478307 41.3791958,45.58 L41.1262011,46.0291111 C40.4058942,47.2690582 39.6059577,48.4339259 38.7359471,49.5096085 C38.6190053,49.6643175 38.4975132,49.8135661 38.3710159,49.9587196 C38.1976508,50.1693968 38.0201905,50.3750688 37.8422751,50.5757354 C37.6925714,50.7445503 37.5383175,50.9174603 37.3790582,51.0812698 C37.3745079,51.0908254 37.3695026,51.0949206 37.3604021,51.1044762 C36.911291,51.5868042 36.4526243,52.0445608 35.9853122,52.4754709 C35.8915767,52.5687513 35.793746,52.6533862 35.6950053,52.7421164 C35.535746,52.8868148 35.3769418,53.027418 35.2131323,53.1634709 C35.0866349,53.2754074 34.9555873,53.3832487 34.8249947,53.4906349 C34.4882751,53.766836 34.1511005,54.0334815 33.8098307,54.2814709 C33.6692275,54.3888571 33.5245291,54.4921481 33.3793757,54.5904339 C33.1454921,54.7587937 32.9070582,54.9180529 32.6681693,55.0723069 C32.5371217,55.161037 32.4015238,55.245672 32.2659259,55.3253016 C32.2427196,55.3389524 32.2236085,55.3535132 32.2004021,55.3626138 C31.7467407,55.6429101 31.2835238,55.900455 30.8298624,56.1252381 C30.7129206,56.1862116 30.5959788,56.2421799 30.479037,56.2981481 C30.3620952,56.3545714 30.2406032,56.4105397 30.1141058,56.4665079 C29.9598519,56.536582 29.8055979,56.6025608 29.6508889,56.6630794 C29.5903704,56.691746 29.5293968,56.7144974 29.4684233,56.7331534 C29.2859577,56.8082328 29.0989418,56.8783069 28.9164762,56.9392804 C28.6871429,57.0234603 28.4532593,57.0935344 28.224381,57.1590582 C28.0651217,57.2059259 27.9013122,57.2477884 27.7425079,57.2851005 C27.7329524,57.2896508 27.7238519,57.2946561 27.709746,57.2946561 C27.5504868,57.3319683 27.3916825,57.3692804 27.2328783,57.3974921 C27.1905608,57.4070476 27.1482434,57.4166032 27.106381,57.4211534 C26.9753333,57.4448148 26.8442857,57.4675661 26.7132381,57.482127 C26.5262222,57.5103386 26.3392063,57.533545 26.1521905,57.5431005 C26.0866667,57.5526561 26.0256931,57.5567513 25.9601693,57.5567513 C25.8104656,57.5658519 25.6657672,57.5708571 25.5206138,57.5708571 L25.5019577,57.5708571 C25.3568042,57.5708571 25.2116508,57.5658519 25.0669524,57.5567513 C25.0105291,57.5567513 24.9545608,57.5522011 24.8981376,57.5431005 C24.7670899,57.5380952 24.6314921,57.5244444 24.4908889,57.5057884 C24.4626772,57.5057884 24.4303704,57.5007831 24.4021587,57.4962328 C24.2287937,57.4725714 24.0558836,57.4448148 23.8779683,57.4115979 C23.7282646,57.3879365 23.5785608,57.3556296 23.4243069,57.3183175 C22.6243704,57.1358519 21.8007725,56.8596508 20.9680741,56.4901693 C20.2568677,56.1766561 19.5365608,55.7980741 18.8208042,55.3580635 C18.7784868,55.3348571 18.7411746,55.3066455 18.6988571,55.2834392 C18.3807937,55.0868677 18.0577249,54.8761905 17.7442116,54.6564127 C17.5662963,54.5303704 17.388836,54.403418 17.2109206,54.2728254 C16.6539683,53.8655767 16.1024762,53.4214709 15.5596296,52.9441481 C15.4099259,52.8080952 15.2602222,52.6724974 15.1105185,52.5323492 C14.9608148,52.3967513 14.8111111,52.2566032 14.6659577,52.1210053 C14.3196825,51.788836 13.982963,51.4475661 13.6603492,51.0871852 C13.6371429,51.0685291 13.6184868,51.0448677 13.5998307,51.0262116 C13.4642328,50.8815132 13.3286349,50.7318095 13.192582,50.5771005 C12.8180952,50.1562011 12.453164,49.7211958 12.1073439,49.2675344 C11.971746,49.1037249 11.8452487,48.9353651 11.7187513,48.7665503 C11.2459788,48.1395238 10.7973228,47.4847407 10.3759683,46.8062963 C10.2635767,46.6238307 10.1511852,46.4363598 10.0437989,46.2543492 C9.91275132,46.0345714 9.78670899,45.8097884 9.66021164,45.5854603 C9.19244444,44.7432063 8.76198942,43.8686455 8.38795767,42.965873 C8.33198942,42.8348254 8.27556614,42.7037778 8.22869841,42.5727302 C8.15361905,42.4043704 8.08809524,42.2314603 8.02757672,42.0626455 C7.93384127,41.8146561 7.84511111,41.5666667 7.76047619,41.3186772 C7.6762963,41.0706878 7.59712169,40.8181481 7.51749206,40.5656085 C7.4424127,40.3221693 7.37233862,40.0791852 7.30681481,39.8311958 C7.23173545,39.5691005 7.16166138,39.302455 7.10114286,39.0312593 C7.09659259,39.0030476 7.08703704,38.975291 7.08203175,38.9470794 C6.99330159,38.5730476 6.91367196,38.1940106 6.84359788,37.8104233 C6.75031746,37.3048889 6.6752381,36.790254 6.61926984,36.2710688 C6.59560847,36.1072593 6.58150265,35.9434497 6.56785185,35.7796402 C6.54919577,35.6067302 6.53508995,35.4379153 6.52598942,35.2650053 C6.50232804,34.9514921 6.48822222,34.6334286 6.47912169,34.3153651 C6.47457143,34.1092381 6.46956614,33.9035661 6.46956614,33.6978942 L6.46956614,19.470127 C6.46956614,9.30438095 14.4366243,0.995597884 24.4717778,0.452751323 C24.4904339,0.448201058 24.5045397,0.448201058 24.5231958,0.448201058 C24.6542434,0.443650794 24.785291,0.438645503 24.9163386,0.434095238 C25.1129101,0.429544974 25.3044762,0.424994709 25.5010476,0.424994709 L25.5197037,0.424994709 C25.7208254,0.424994709 25.9219471,0.429544974 26.1230688,0.434095238 L26.1653862,0.434095238 C26.3055344,0.438645503 26.4461376,0.443650794 26.5862857,0.452751323 L26.6003915,0.452751323 C26.6659153,0.457301587 26.7314392,0.462306878 26.796963,0.466857143 C26.9375661,0.476412698 27.0777143,0.485513228 27.2133122,0.499619048 C27.2833862,0.504169312 27.3489101,0.509174603 27.4194392,0.518275132 C27.4663069,0.522825397 27.5081693,0.527830688 27.555037,0.532380952 C28.2990053,0.612010582 29.0288677,0.733502646 29.7400741,0.892761905 C30.9800212,1.17351323 32.1726455,1.57575661 33.3047513,2.08584127 C34.8486561,2.77839153 36.2847196,3.6670582 37.5760847,4.72908995 C38.6613228,5.61821164 39.6487302,6.61926984 40.5091852,7.72316402 C43.016836,10.9183598 44.5275238,14.9326032 44.5607407,19.3017672 C44.564836,19.3581905 44.564836,19.4141587 44.564836,19.470127 Z" id="Shape" fill="#ECC19C"></path>
                            <path d="M48.812963,26.5203069 L2.22644444,26.5203069 C2.22644444,12.4995767 12.0932381,1.06567196 24.4717778,0.452751323 C24.4904339,0.448201058 24.5045397,0.448201058 24.5231958,0.448201058 C24.6542434,0.443650794 24.785291,0.438645503 24.9163386,0.434095238 C25.1129101,0.429544974 25.3044762,0.424994709 25.5010476,0.424994709 L25.5197037,0.424994709 C25.7208254,0.424994709 25.9219471,0.429544974 26.1230688,0.434095238 L26.1653862,0.434095238 C26.3055344,0.438645503 26.4461376,0.443650794 26.5862857,0.452751323 L26.6003915,0.452751323 C26.6659153,0.457301587 26.7314392,0.462306878 26.796963,0.466857143 C26.8765926,0.471407407 26.9562222,0.476412698 27.0353968,0.480962963 C27.0918201,0.485513228 27.1523386,0.490518519 27.2133122,0.500074074 C27.2833862,0.504624339 27.3489101,0.50962963 27.4194392,0.518730159 C27.4663069,0.523280423 27.5081693,0.528285714 27.555037,0.532835979 C39.4653545,1.68359788 48.812963,12.8786138 48.812963,26.5203069 Z" id="Shape" fill="#141720"></path>
                        </g>
                    </g>
                </g>
            </g>
        </g>
    </g>
</svg>