<?xml version="1.0" encoding="UTF-8"?>
<svg width="86px" height="86px" viewBox="0 0 86 86" version="1.1" xmlns="http://www.w3.org/2000/svg" xmlns:xlink="http://www.w3.org/1999/xlink">
    <!-- Generator: Sketch 50.2 (55047) - http://www.bohemiancoding.com/sketch -->
    <title>man (1)</title>
    <desc>Created with Sketch.</desc>
    <defs>
        <circle id="path-1" cx="42.8061587" cy="42.8061587" r="42.8061587"></circle>
    </defs>
    <g id="Page-1" stroke="none" stroke-width="1" fill="none" fill-rule="evenodd">
        <g id="1440-and-under" transform="translate(-479.000000, -217.000000)">
            <g id="Group-2" transform="translate(479.000000, 217.000000)">
                <g id="man-(1)">
                    <mask id="mask-2" fill="white">
                        <use xlink:href="#path-1"></use>
                    </mask>
                    <use id="Mask" fill="#F3E4B2" fill-rule="nonzero" xlink:href="#path-1"></use>
                    <g mask="url(#mask-2)" fill-rule="nonzero">
                        <g id="SVGID_1_-link" fill="#F3E4B2">
                            <circle id="SVGID_1_" cx="42.8061587" cy="42.8061587" r="42.8061587"></circle>
                        </g>
                        <path d="M61.8713122,24.0181164 L61.8713122,38.2449735 C61.8713122,38.4506455 61.8667619,38.6563175 61.8617566,38.8619894 C61.8572063,39.0303492 61.8526561,39.1941587 61.8431005,39.3629735 C61.8385503,39.5126772 61.8289947,39.662381 61.8148889,39.8120847 C61.8103386,39.9194709 61.8007831,40.0273122 61.7916825,40.1346984 C61.7866772,40.2006772 61.782127,40.2607407 61.7725714,40.3267196 C61.7634709,40.4436614 61.7539153,40.5651534 61.7352593,40.6820952 C61.7166032,40.9064233 61.6883915,41.1266561 61.6556296,41.3509841 C61.6510794,41.4074074 61.6415238,41.4633757 61.6324233,41.5193439 C61.6183175,41.6317354 61.5996614,41.744127 61.5810053,41.8560635 L61.5810053,41.8701693 C61.5532487,42.0335238 61.525037,42.1927831 61.4968254,42.3565926 C61.4545079,42.5809206 61.4126455,42.8057037 61.3657778,43.0254815 C61.3612275,43.035037 61.3612275,43.0445926 61.3566772,43.0541481 C61.352127,43.086455 61.3471217,43.119672 61.3380212,43.1524339 C61.3334709,43.1619894 61.3334709,43.1710899 61.3284656,43.1806455 C61.3052593,43.3025926 61.2770476,43.4190794 61.248836,43.5360212 C61.2397354,43.5874392 61.2301799,43.6393122 61.2115238,43.6907302 C61.197418,43.7749101 61.1737566,43.8586349 61.1555556,43.9432698 C61.1414497,43.9901376 61.1323492,44.0415556 61.1132381,44.0879683 C61.1036825,44.1302857 61.0900317,44.1726032 61.0804762,44.2099153 C60.9821905,44.5935026 60.8697989,44.9679894 60.7528571,45.3420212 C60.6964339,45.5199365 60.6404656,45.6928466 60.5799471,45.8707619 C60.5753968,45.889418 60.5658413,45.9080741 60.561291,45.9267302 C60.5053228,46.0859894 60.4488995,46.2447937 60.3929312,46.4040529 C60.3742751,46.4509206 60.355619,46.4973333 60.336963,46.5487513 C60.2805397,46.698455 60.2245714,46.8481587 60.1640529,46.9978624 C60.0939788,47.179873 60.0188995,47.3577884 59.9442751,47.5361587 C59.8787513,47.695418 59.8086772,47.8537672 59.7386032,48.0130265 C59.7295026,48.0416931 59.7153968,48.0644444 59.7058413,48.0926561 C59.6262116,48.2610159 59.5515873,48.4293757 59.4719577,48.5936402 C59.392328,48.7665503 59.3081481,48.9399153 59.219418,49.1132804 C59.0510582,49.4545503 58.8685926,49.7962751 58.686127,50.1279894 L58.4335873,50.5771005 C57.7128254,51.8170476 56.9133439,52.9814603 56.0428783,54.0575979 C55.9259365,54.2118519 55.8044444,54.3615556 55.6779471,54.506254 C55.505037,54.7169312 55.3271217,54.9226032 55.1492063,55.1237249 C54.9899471,55.3016402 54.8311429,55.4791005 54.6673333,55.6524656 C54.2182222,56.1343386 53.7595556,56.5925503 53.2917884,57.0234603 C53.1980529,57.1167407 53.1002222,57.2013757 53.0019365,57.2901058 C52.8426772,57.4348042 52.683873,57.5754074 52.5200635,57.7110053 C52.3940212,57.8233968 52.2629735,57.9307831 52.1314709,58.0386243 C51.7947513,58.3143704 51.4580317,58.5810159 51.1163069,58.8290053 C50.9761587,58.9368466 50.8310053,59.0396825 50.6858519,59.1379683 C50.4519683,59.306328 50.2130794,59.4655873 49.9746455,59.6202963 C49.8435979,59.7090265 49.708,59.7932063 49.5724021,59.872836 C49.0950794,60.1672381 48.6132063,60.4388889 48.1358836,60.6727725 C48.0189418,60.733746 47.902,60.7901693 47.7850582,60.8461376 C47.6681164,60.9021058 47.5466243,60.9585291 47.420127,61.0144974 C47.265873,61.0845714 47.111164,61.1500952 46.9569101,61.2110688 C46.8959365,61.2388254 46.835418,61.2624868 46.7744444,61.2811429 C46.5919788,61.3562222 46.404963,61.4258413 46.2224974,61.4868148 C45.993619,61.5714497 45.7592804,61.6415238 45.5304021,61.7065926 C45.3711429,61.7534603 45.2077884,61.7953228 45.0485291,61.8326349 C45.0389735,61.8376402 45.029873,61.8421905 45.0157672,61.8421905 C44.8565079,61.8799577 44.6977037,61.9172698 44.5384444,61.9454815 C44.496582,61.955037 44.4542646,61.9641376 44.4124021,61.9691429 C44.2813545,61.9923492 44.1503069,62.0160106 44.0192593,62.0301164 C43.8322434,62.058328 43.6447725,62.0815344 43.4577566,62.0906349 C43.3922328,62.1001905 43.3317143,62.1047407 43.2661905,62.1047407 C43.1164868,62.1138413 42.9667831,62.1188466 42.8216296,62.1188466 L42.8075238,62.1188466 C42.6628254,62.1188466 42.517672,62.1138413 42.3725185,62.1047407 C42.3165503,62.1047407 42.260127,62.1001905 42.2041587,62.0906349 C42.0731111,62.0860847 41.9375132,62.0719788 41.7969101,62.0533228 C41.7691534,62.0533228 41.7363915,62.0487725 41.7081799,62.0437672 C41.5352698,62.0205608 41.3619048,61.9923492 41.1844444,61.9595873 C41.0347407,61.9359259 40.885037,61.903164 40.730328,61.8658519 C39.9303915,61.6833862 39.1072487,61.4071852 38.2745503,61.0381587 C37.5633439,60.7246455 36.843037,60.3456085 36.1272804,59.9060529 C35.7673545,59.6862751 35.4069735,59.4523915 35.0511429,59.2044021 C34.8732275,59.0779048 34.6957672,58.9514074 34.5178519,58.8203598 C33.9608995,58.4131111 33.4089524,57.9690053 32.8665608,57.4916825 C32.7168571,57.3560847 32.5671534,57.2204868 32.4174497,57.0803386 C32.267746,56.9447407 32.1180423,56.8041376 31.9728889,56.6685397 C31.6079577,56.3177143 31.252582,55.9532381 30.9063069,55.5742011 C30.770709,55.4290476 30.6351111,55.2797989 30.4990582,55.1250899 C30.1250265,54.7041905 29.7600952,54.2691852 29.4138201,53.8150688 C29.2782222,53.6517143 29.1517249,53.4833545 29.0256825,53.3145397 C28.5529101,52.6875132 28.104254,52.0327302 27.6828995,51.3538307 C27.5705079,51.1718201 27.4581164,50.9848042 27.3507302,50.8018836 C27.2196825,50.5821058 27.0936402,50.3573228 26.9671429,50.1329947 C26.4993757,49.2907407 26.0689206,48.4161799 25.6948889,47.5129524 C25.6384656,47.3819048 25.5824974,47.2508571 25.5356296,47.1202646 C25.4610053,46.9519048 25.3954815,46.7785397 25.3345079,46.6101799 C25.2407725,46.3621905 25.1520423,46.1142011 25.0678624,45.8662116 C24.9836825,45.6182222 24.9040529,45.3652275 24.8244233,45.1131429 C24.7497989,44.8697037 24.6797249,44.6267196 24.6142011,44.3787302 C24.5391217,44.1166349 24.4690476,43.8499894 24.4080741,43.5787937 C24.4035238,43.550582 24.3939683,43.5223704 24.389418,43.4941587 C24.3006878,43.120127 24.2210582,42.7410899 24.1509841,42.3575026 C24.0572487,41.8524233 23.9826243,41.3377884 23.9266561,40.8181481 C23.9029947,40.6547937 23.8888889,40.4905291 23.8752381,40.3271746 C23.856582,40.1538095 23.8424762,39.9854497 23.8329206,39.8125397 C23.8097143,39.4990265 23.7956085,39.1805079 23.7860529,38.8624444 C23.7815026,38.6567725 23.7764974,38.4511005 23.7764974,38.2454286 L23.7764974,24.0181164 C23.7764974,13.5056402 32.2955026,4.98208466 42.8075238,4.97298413 L42.8266349,4.97298413 C44.2768042,4.97298413 45.6896614,5.13633862 47.0460952,5.44075132 C48.2860423,5.72104762 49.4791217,6.12374603 50.6107725,6.63337566 C52.1546772,7.3254709 53.5907407,8.21504762 54.8821058,9.27707937 C55.9677989,10.165746 56.9547513,11.1668042 57.8156614,12.2711534 C60.3233122,15.4663492 61.834,19.4805926 61.8667619,23.8497566 C61.8713122,23.9057249 61.8713122,23.9616931 61.8713122,24.0181164 Z" id="Shape" fill="#ECC19C"></path>
                        <path d="M67.6396825,91.3433757 L67.6396825,91.3479259 L18.007672,91.3479259 L18.007672,91.3433757 C18.007672,88.5408677 18.4708889,85.8416508 19.3317989,83.3294497 C19.4860529,82.8757884 19.6544127,82.4266772 19.8373333,81.9821164 L19.8373333,81.9771111 C20.0152487,81.5325503 20.2113651,81.097545 20.417037,80.667545 C21.2356296,78.9411746 22.2557989,77.3267407 23.4393228,75.8488148 C23.7387302,75.4788783 24.0426878,75.1184974 24.3562011,74.7726772 C24.510455,74.5947619 24.6742646,74.4223069 24.8380741,74.2489418 C25.0014286,74.080582 25.1656931,73.9122222 25.3335979,73.7438624 C26.1713016,72.9061587 27.0690688,72.1394392 28.0146138,71.4327831 C28.4869312,71.0819577 28.964254,70.7543386 29.4602328,70.4367302 C29.9562116,70.1232169 30.461291,69.8233545 30.9759259,69.5430582 C30.9854815,69.5339577 30.994582,69.5339577 30.994582,69.5339577 C31.1957037,69.4261164 31.3922751,69.3091746 31.5888466,69.1876825 C32.1735556,68.8368571 32.7350582,68.4482646 33.2683492,68.0182646 C35.5280106,66.2218201 37.2775873,63.8074497 38.2740952,61.0381587 C38.8683598,59.3818624 39.1909735,57.5995238 39.1909735,55.7375556 L42.8070688,55.7562116 L46.526455,55.7753228 C46.526455,57.6136296 46.8399683,59.3773122 47.420127,61.0149524 C48.4025291,63.7937989 50.1475556,66.2172698 52.4072169,68.0228148 C52.7439365,68.2990159 53.0856614,68.5515556 53.4455873,68.7904444 C53.4833545,68.8182011 53.5156614,68.8414074 53.5534286,68.8650688 C53.7217884,68.9774603 53.8901481,69.0893968 54.0680635,69.1926878 C54.2596296,69.3096296 54.4562011,69.4265714 54.6527725,69.5344127 C54.6855344,69.5435132 54.713746,69.557619 54.7369524,69.5762751 C55.1487513,69.8056085 55.555545,70.0440423 55.9532381,70.2920317 C56.1452593,70.4089735 56.3368254,70.5304656 56.5238413,70.6660635 C56.9124339,70.9140529 57.2910159,71.1857037 57.6609524,71.466455 C57.6609524,71.4710053 57.6655026,71.4710053 57.6655026,71.4710053 L57.6700529,71.4710053 C58.1428254,71.8218307 58.601037,72.1963175 59.0501481,72.5799048 C59.4992593,72.9639471 59.9297143,73.3657354 60.3460635,73.7825397 C64.8558307,78.2722857 67.6396825,84.4761164 67.6396825,91.3433757 Z" id="Shape" fill="#ECC19C"></path>
                        <path d="M67.6378624,91.3415556 L18.0063069,91.3415556 C18.0063069,88.5390476 18.4695238,85.8393757 19.3304339,83.3276296 C19.4846878,82.8739683 19.6535026,82.4248571 19.8355132,81.9802963 L19.8355132,81.975291 C20.0134286,81.5307302 20.21,81.0957249 20.415672,80.6652698 C21.2342646,78.9393545 22.2539788,77.3249206 23.4379577,75.8465397 C23.7373651,75.4770582 24.0417778,75.1166772 24.354836,74.7708571 C24.5090899,74.5929418 24.6728995,74.4200317 24.836709,74.2471217 C25.0005185,74.0787619 25.164328,73.9104021 25.3326878,73.7420423 C26.1699365,72.9043386 27.0681587,72.137619 28.0132487,71.430963 C28.4860212,71.0801376 28.9628889,70.7525185 29.4588677,70.434455 C29.7159577,70.2711005 29.9735026,70.1118413 30.2351429,69.9575873 C30.478582,69.8124339 30.7265714,69.6718307 30.9745608,69.5362328 C30.9841164,69.5266772 30.9932169,69.5316825 30.9932169,69.5316825 L30.9932169,69.5266772 C31.1943386,69.4142857 31.3909101,69.3023492 31.5874815,69.1849524 C32.1721905,68.8295767 32.7336931,68.4364339 33.2574286,68.0059788 C33.2619788,68.0109841 33.2619788,68.0109841 33.2669841,68.0155344 C35.690455,70.4949735 39.0635661,72.034328 42.8061587,72.0438836 L42.8439259,72.0438836 C46.5865185,72.0438836 49.9732804,70.4999788 52.4063069,68.0205397 L52.4108571,68.0155344 C52.7430265,68.2917354 53.0893016,68.5492804 53.4446772,68.7877143 C53.4819894,68.8154709 53.5147513,68.8386772 53.5520635,68.8623386 C53.7204233,68.9747302 53.8937884,69.0821164 54.0666984,69.1899577 C54.2582646,69.3068995 54.455291,69.419291 54.6514074,69.5266772 C54.6841693,69.5362328 54.7078307,69.5548889 54.7355873,69.5689947 C54.9553651,69.6909418 55.1801481,69.8169841 55.3953757,69.9475767 C55.5828466,70.0599683 55.7698624,70.1723598 55.952328,70.2893016 C56.1438942,70.4062434 56.3359153,70.5277354 56.5229312,70.6633333 C56.9115238,70.9113228 57.2901058,71.1829735 57.6595873,71.4637249 L57.6691429,71.4637249 C58.1414603,71.8191005 58.6046772,72.189037 59.0492381,72.5767196 C59.4983492,72.9607619 59.9288042,73.3630053 60.3451534,73.7793545 C64.8544656,78.2700106 67.6378624,84.4733862 67.6378624,91.3415556 Z" id="Shape" fill="#EB6D4A"></path>
                        <path d="M61.8713122,38.2449735 C61.8713122,38.4506455 61.8667619,38.6563175 61.8617566,38.8619894 C61.8572063,39.0303492 61.8526561,39.1941587 61.8431005,39.3629735 C61.8385503,39.5126772 61.8289947,39.662381 61.8148889,39.8120847 C61.8103386,39.9194709 61.8007831,40.0273122 61.7916825,40.1346984 C61.7866772,40.2006772 61.782127,40.2607407 61.7725714,40.3267196 C61.7634709,40.4436614 61.7539153,40.5651534 61.7352593,40.6820952 C61.7115979,40.9064233 61.6883915,41.1307513 61.6556296,41.3509841 C61.6510794,41.4074074 61.6415238,41.4633757 61.6324233,41.5193439 C61.6183175,41.6317354 61.5996614,41.744127 61.5810053,41.8560635 C61.5577989,42.0244233 61.525037,42.1927831 61.4968254,42.3570476 C61.4595132,42.553619 61.421746,42.7451852 61.3798836,42.9367513 C61.3748783,42.9790688 61.3657778,43.016381 61.3562222,43.0541481 C61.351672,43.086455 61.3421164,43.119672 61.3375661,43.1524339 C61.3330159,43.1619894 61.3330159,43.1710899 61.3280106,43.1806455 C61.3280106,43.2038519 61.3234603,43.222963 61.3189101,43.241619 C61.2957037,43.3399048 61.2765926,43.4381905 61.248836,43.5360212 C61.2397354,43.5874392 61.2301799,43.6393122 61.2115238,43.6907302 C61.1924127,43.7840106 61.1692063,43.8727407 61.1414497,43.9619259 C61.1368995,44.0042434 61.1273439,44.0465608 61.1132381,44.0879683 C61.1036825,44.1302857 61.0900317,44.1726032 61.0804762,44.2099153 C60.9821905,44.5935026 60.8697989,44.9679894 60.7528571,45.3420212 C60.6964339,45.5199365 60.6404656,45.6928466 60.5799471,45.8707619 C60.5753968,45.889418 60.5658413,45.9080741 60.561291,45.9267302 C60.5053228,46.0859894 60.4488995,46.2447937 60.3929312,46.4040529 C60.3742751,46.4509206 60.355619,46.4973333 60.336963,46.5487513 C60.2805397,46.698455 60.2245714,46.8481587 60.1640529,46.9978624 C60.0939788,47.179873 60.0188995,47.3577884 59.9442751,47.5361587 C59.8787513,47.695418 59.8086772,47.8537672 59.7386032,48.0130265 C59.7295026,48.0416931 59.7153968,48.0644444 59.7058413,48.0926561 C59.6262116,48.2610159 59.5515873,48.4293757 59.4719577,48.5936402 C59.392328,48.7665503 59.3081481,48.9399153 59.219418,49.1132804 C59.0510582,49.4545503 58.8685926,49.7962751 58.686127,50.1279894 L58.4335873,50.5771005 C57.7128254,51.8170476 56.9133439,52.9814603 56.0428783,54.0575979 C55.9259365,54.2118519 55.8044444,54.3615556 55.6779471,54.506254 C55.505037,54.7169312 55.3271217,54.9226032 55.1492063,55.1237249 C54.9899471,55.3016402 54.8311429,55.4791005 54.6673333,55.6524656 C54.2182222,56.1343386 53.7595556,56.5925503 53.2917884,57.0234603 C53.1980529,57.1167407 53.1002222,57.2013757 53.0019365,57.2901058 C52.8426772,57.4348042 52.683873,57.5754074 52.5200635,57.7110053 C52.3940212,57.8233968 52.2629735,57.9307831 52.1314709,58.0386243 C51.7947513,58.3143704 51.4580317,58.5810159 51.1163069,58.8290053 C50.9761587,58.9368466 50.8310053,59.0396825 50.6858519,59.1379683 C50.4519683,59.306328 50.2130794,59.4655873 49.9746455,59.6202963 C49.8435979,59.7090265 49.708,59.7932063 49.5724021,59.872836 C49.0950794,60.1672381 48.6132063,60.4388889 48.1358836,60.6727725 C48.0189418,60.733746 47.902,60.7901693 47.7850582,60.8461376 C47.6681164,60.9021058 47.5466243,60.9585291 47.420127,61.0144974 C47.265873,61.0845714 47.111164,61.1500952 46.9569101,61.2110688 C46.8959365,61.2388254 46.835418,61.2624868 46.7744444,61.2811429 C46.5919788,61.3562222 46.404963,61.4258413 46.2224974,61.4868148 C45.993619,61.5714497 45.7592804,61.6415238 45.5304021,61.7065926 C45.3711429,61.7534603 45.2077884,61.7953228 45.0485291,61.8326349 C45.0389735,61.8376402 45.029873,61.8421905 45.0157672,61.8421905 C44.8565079,61.8799577 44.6977037,61.9172698 44.5384444,61.9454815 C44.496582,61.955037 44.4542646,61.9641376 44.4124021,61.9691429 C44.2813545,61.9923492 44.1503069,62.0160106 44.0192593,62.0301164 C43.8322434,62.058328 43.6447725,62.0815344 43.4577566,62.0906349 C43.3922328,62.1001905 43.3317143,62.1047407 43.2661905,62.1047407 C43.1164868,62.1138413 42.9667831,62.1188466 42.8216296,62.1188466 L42.8075238,62.1188466 C42.6628254,62.1188466 42.517672,62.1138413 42.3725185,62.1047407 C42.3165503,62.1047407 42.260127,62.1001905 42.2041587,62.0906349 C42.0731111,62.0860847 41.9375132,62.0719788 41.7969101,62.0533228 C41.7691534,62.0533228 41.7363915,62.0487725 41.7081799,62.0437672 C41.5352698,62.0205608 41.3619048,61.9923492 41.1844444,61.9595873 C41.0347407,61.9359259 40.885037,61.903164 40.730328,61.8658519 C39.9303915,61.6833862 39.1072487,61.4071852 38.2745503,61.0381587 C37.5633439,60.7246455 36.843037,60.3456085 36.1272804,59.9060529 C35.7673545,59.6908254 35.4115238,59.4569418 35.0511429,59.2044021 C34.8732275,59.0779048 34.6957672,58.9514074 34.5178519,58.8203598 C33.9608995,58.4131111 33.4089524,57.9690053 32.8665608,57.4916825 C32.7168571,57.3560847 32.5671534,57.2204868 32.4174497,57.0803386 C32.267746,56.9447407 32.1180423,56.8041376 31.9728889,56.6685397 C31.6079577,56.3177143 31.252582,55.9532381 30.9063069,55.5742011 C30.770709,55.4290476 30.6351111,55.2797989 30.4990582,55.1250899 C30.1250265,54.7041905 29.7600952,54.2691852 29.4138201,53.8150688 C29.2782222,53.6517143 29.1517249,53.4833545 29.0256825,53.3145397 C28.5529101,52.6875132 28.104254,52.0327302 27.6828995,51.3538307 C27.5705079,51.1718201 27.4581164,50.9848042 27.3507302,50.8018836 C27.2196825,50.5821058 27.0936402,50.3573228 26.9671429,50.1329947 C26.4993757,49.2907407 26.0689206,48.4161799 25.6948889,47.5129524 C25.6384656,47.3819048 25.5824974,47.2508571 25.5356296,47.1202646 C25.4610053,46.9519048 25.3954815,46.7785397 25.3345079,46.6101799 C25.2407725,46.3621905 25.1520423,46.1142011 25.0678624,45.8662116 C24.9836825,45.6182222 24.9040529,45.3652275 24.8244233,45.1131429 C24.7497989,44.8697037 24.6797249,44.6267196 24.6142011,44.3787302 C24.5391217,44.1166349 24.4690476,43.8499894 24.4080741,43.5787937 C24.4035238,43.550582 24.3939683,43.5223704 24.389418,43.4941587 C24.3006878,43.120127 24.2210582,42.7410899 24.1509841,42.3575026 C24.0572487,41.8524233 23.9826243,41.3377884 23.9266561,40.8181481 C23.9029947,40.6547937 23.8888889,40.4905291 23.8752381,40.3271746 C23.856582,40.1538095 23.8424762,39.9854497 23.8329206,39.8125397 C23.8097143,39.4990265 23.7956085,39.1805079 23.7860529,38.8624444 C23.7815026,38.6567725 23.7764974,38.4511005 23.7764974,38.2454286 L26.8174392,44.2244762 L32.042963,46.5027937 L38.2222222,47.058836 L38.2267725,47.058836 L42.8066138,47.4751852 L42.8348254,47.4751852 L47.1198095,47.8633228 C47.1198095,47.8633228 47.1198095,47.8587725 47.1243598,47.8633228 L56.6821905,48.7246878 L61.8713122,38.2449735 Z" id="Shape" fill="#543E36"></path>
                        <g id="Group" transform="translate(23.661376, 32.306878)" fill="#543E36">
                            <path d="M19.1834603,8.94172487 L19.1789101,13.5497778 L19.1789101,13.554328 L19.1743598,15.1687619 L19.1743598,16.4364656 L19.1698095,20.6468254 L19.1698095,20.6518307 L19.1652593,20.6468254 L19.160709,20.6468254 L19.1466032,20.6372698 L0.746243386,11.2714603 C0.741693122,11.2432487 0.732137566,11.215037 0.727587302,11.1868254 C0.638857143,10.8127937 0.559227513,10.4337566 0.489153439,10.0501693 C0.395417989,9.54508995 0.320793651,9.03045503 0.264825397,8.51081481 C0.241164021,8.34746032 0.227058201,8.18319577 0.213407407,8.01984127 C0.194751323,7.84647619 0.180645503,7.6781164 0.171089947,7.50520635 C0.147883598,7.19169312 0.133777778,6.8731746 0.124222222,6.55511111 C0.119671958,6.34943915 0.114666667,6.1437672 0.114666667,5.93809524 L0.114666667,0.347640212 C0.114666667,0.427269841 0.119216931,0.506899471 0.119216931,0.586074074 C0.156529101,1.93795767 0.371756614,3.42543915 0.78810582,4.94613757 C1.1111746,6.11555556 1.51296296,7.19624339 1.98118519,8.15998942 L1.98118519,8.16453968 C3.20702646,10.7145079 4.84921693,12.4449735 6.35990476,12.7257249 C6.45364021,12.7398307 6.5514709,12.7493862 6.64520635,12.7584868 C7.22991534,12.8240106 7.84283598,12.8613228 8.4744127,12.8613228 C10.8605714,12.8613228 12.9796296,10.9433862 14.3128571,10.1666561 C14.3224127,10.1621058 14.3315132,10.1571005 14.3410688,10.1530053 C14.4111429,10.1106878 14.4812169,10.0683704 14.5421905,10.0265079 C14.5608466,10.0128571 14.5795026,10.0033016 14.5986138,9.99420106 C15.721164,9.35306878 17.3401481,8.94582011 19.1456931,8.94172487 L19.1834603,8.94172487 Z" id="Shape"></path>
                            <path d="M38.2135767,0.345365079 L38.2090265,5.93582011 C38.2090265,7.33912169 38.0779788,8.71466667 37.8349947,10.0478942 C37.736709,10.5811852 37.6243175,11.1099259 37.4932698,11.6336614 L33.1750688,17.8697989 L19.1679894,20.6440952 L19.1634392,20.6440952 L19.1588889,20.6491005 L19.1588889,20.6440952 L19.1447831,8.9371746 L19.1825503,8.9371746 C20.9880952,8.94217989 22.6116296,9.34897354 23.7341799,9.98965079 C23.753291,9.99920635 23.7669418,10.0083069 23.7855979,10.0224127 C23.8511217,10.0642751 23.9211958,10.1065926 23.9917249,10.148455 C23.9962751,10.1530053 24.0058307,10.1580106 24.0149312,10.1625608 C25.352709,10.938836 27.4672169,12.8585926 29.8533757,12.8585926 C30.4849524,12.8585926 31.097873,12.8212804 31.682582,12.7557566 C31.7808677,12.7462011 31.8741481,12.7371005 31.9724339,12.7229947 C33.4790265,12.4422434 35.1257672,10.7113228 36.3466032,8.16180952 L36.3466032,8.15725926 C36.8143704,7.19351323 37.2166138,6.1128254 37.5396825,4.94340741 C37.960582,3.39904762 38.1808148,1.89291005 38.2085714,0.52237037 C38.2135767,0.462306878 38.2135767,0.405883598 38.2135767,0.345365079 Z" id="Shape"></path>
                        </g>
                        <ellipse id="Oval" fill="#ECC19C" cx="42.8216296" cy="47.3" rx="4.6662963" ry="1.44288889"></ellipse>
                        <path d="M42.8252698,4.97298413 L42.8070688,4.97298413 C32.2950476,4.98253968 23.7760423,13.5060952 23.7760423,24.0181164 L23.7760423,32.4160847 C23.7760423,32.4160847 24.5664233,27.4053333 26.6954921,24.9727619 C29.0065714,22.3295132 28.4218624,18.3107196 33.6055238,18.3107196 C36.9504233,18.3107196 37.1374392,19.5456614 42.8029735,19.5456614 L42.8075238,19.5456614 L42.8257249,19.5456614 L42.8302751,19.5456614 C48.4958095,19.5456614 48.6828254,18.3107196 52.0277249,18.3107196 C57.2113862,18.3107196 56.6262222,22.3290582 58.9377566,24.9727619 C61.0663704,27.4053333 61.8567513,32.4160847 61.8567513,32.4160847 L61.8567513,24.0181164 C61.8562963,13.5060952 53.337291,4.98208466 42.8252698,4.97298413 Z" id="Shape" fill="#543E36"></path>
                        <path d="M55.3949206,69.9471217 L54.8802857,70.4713122 C51.6709841,73.7411323 47.385545,75.542582 42.8148042,75.542582 C38.1976508,75.5330265 33.9213122,73.7274815 30.7261164,70.4622116 L30.2346878,69.9571323 C30.478127,69.8119788 30.7261164,69.6713757 30.9741058,69.5357778 C30.9836614,69.5262222 30.9927619,69.5312275 30.9927619,69.5312275 L30.9927619,69.5262222 C31.1938836,69.4138307 31.390455,69.3018942 31.5870265,69.1844974 C32.1717354,68.8291217 32.7332381,68.4359788 33.2569735,68.0055238 C33.2615238,68.0105291 33.2615238,68.0105291 33.2665291,68.0150794 C35.69,70.4945185 39.0631111,72.033873 42.8057037,72.0434286 L42.8434709,72.0434286 C46.5860635,72.0434286 49.9728254,70.4995238 52.4058519,68.0200847 L52.4104021,68.0150794 C52.7425714,68.2912804 53.0888466,68.5488254 53.4442222,68.7872593 C53.4815344,68.8150159 53.5142963,68.8382222 53.5516085,68.8618836 C53.7199683,68.9742751 53.8933333,69.0816614 54.0662434,69.1895026 C54.2578095,69.3064444 54.454836,69.418836 54.6509524,69.5262222 C54.6837143,69.5357778 54.7073757,69.5544339 54.7351323,69.5685397 C54.9553651,69.6904868 55.1796931,69.8165291 55.3949206,69.9471217 Z" id="Shape" fill="#C34628"></path>
                    </g>
                </g>
            </g>
        </g>
    </g>
</svg>