<?xml version="1.0" encoding="UTF-8"?>
<svg width="85px" height="85px" viewBox="0 0 85 85" version="1.1" xmlns="http://www.w3.org/2000/svg" xmlns:xlink="http://www.w3.org/1999/xlink">
    <!-- Generator: Sketch 50.2 (55047) - http://www.bohemiancoding.com/sketch -->
    <title>Group 2</title>
    <desc>Created with Sketch.</desc>
    <defs>
        <rect id="path-1" x="0" y="0" width="85" height="85"></rect>
    </defs>
    <g id="Page-1" stroke="none" stroke-width="1" fill="none" fill-rule="evenodd">
        <g id="1440-and-above" transform="translate(-480.000000, -217.000000)">
            <g id="Group-2" transform="translate(480.000000, 217.000000)">
                <mask id="mask-2" fill="white">
                    <use xlink:href="#path-1"></use>
                </mask>
                <use id="Mask" fill="#D9EAFF" xlink:href="#path-1"></use>
                <g mask="url(#mask-2)" fill-rule="nonzero" id="Shape">
                    <g transform="translate(18.000000, 7.000000)">
                        <path d="M43.8713122,20.0181164 L43.8713122,34.2449735 C43.8713122,34.4506455 43.8667619,34.6563175 43.8617566,34.8619894 C43.8572063,35.0303492 43.8526561,35.1941587 43.8431005,35.3629735 C43.8385503,35.5126772 43.8289947,35.662381 43.8148889,35.8120847 C43.8103386,35.9194709 43.8007831,36.0273122 43.7916825,36.1346984 C43.7866772,36.2006772 43.782127,36.2607407 43.7725714,36.3267196 C43.7634709,36.4436614 43.7539153,36.5651534 43.7352593,36.6820952 C43.7166032,36.9064233 43.6883915,37.1266561 43.6556296,37.3509841 C43.6510794,37.4074074 43.6415238,37.4633757 43.6324233,37.5193439 C43.6183175,37.6317354 43.5996614,37.744127 43.5810053,37.8560635 L43.5810053,37.8701693 C43.5532487,38.0335238 43.525037,38.1927831 43.4968254,38.3565926 C43.4545079,38.5809206 43.4126455,38.8057037 43.3657778,39.0254815 C43.3612275,39.035037 43.3612275,39.0445926 43.3566772,39.0541481 C43.352127,39.086455 43.3471217,39.119672 43.3380212,39.1524339 C43.3334709,39.1619894 43.3334709,39.1710899 43.3284656,39.1806455 C43.3052593,39.3025926 43.2770476,39.4190794 43.248836,39.5360212 C43.2397354,39.5874392 43.2301799,39.6393122 43.2115238,39.6907302 C43.197418,39.7749101 43.1737566,39.8586349 43.1555556,39.9432698 C43.1414497,39.9901376 43.1323492,40.0415556 43.1132381,40.0879683 C43.1036825,40.1302857 43.0900317,40.1726032 43.0804762,40.2099153 C42.9821905,40.5935026 42.8697989,40.9679894 42.7528571,41.3420212 C42.6964339,41.5199365 42.6404656,41.6928466 42.5799471,41.8707619 C42.5753968,41.889418 42.5658413,41.9080741 42.561291,41.9267302 C42.5053228,42.0859894 42.4488995,42.2447937 42.3929312,42.4040529 C42.3742751,42.4509206 42.355619,42.4973333 42.336963,42.5487513 C42.2805397,42.698455 42.2245714,42.8481587 42.1640529,42.9978624 C42.0939788,43.179873 42.0188995,43.3577884 41.9442751,43.5361587 C41.8787513,43.695418 41.8086772,43.8537672 41.7386032,44.0130265 C41.7295026,44.0416931 41.7153968,44.0644444 41.7058413,44.0926561 C41.6262116,44.2610159 41.5515873,44.4293757 41.4719577,44.5936402 C41.392328,44.7665503 41.3081481,44.9399153 41.219418,45.1132804 C41.0510582,45.4545503 40.8685926,45.7962751 40.686127,46.1279894 L40.4335873,46.5771005 C39.7128254,47.8170476 38.9133439,48.9814603 38.0428783,50.0575979 C37.9259365,50.2118519 37.8044444,50.3615556 37.6779471,50.506254 C37.505037,50.7169312 37.3271217,50.9226032 37.1492063,51.1237249 C36.9899471,51.3016402 36.8311429,51.4791005 36.6673333,51.6524656 C36.2182222,52.1343386 35.7595556,52.5925503 35.2917884,53.0234603 C35.1980529,53.1167407 35.1002222,53.2013757 35.0019365,53.2901058 C34.8426772,53.4348042 34.683873,53.5754074 34.5200635,53.7110053 C34.3940212,53.8233968 34.2629735,53.9307831 34.1314709,54.0386243 C33.7947513,54.3143704 33.4580317,54.5810159 33.1163069,54.8290053 C32.9761587,54.9368466 32.8310053,55.0396825 32.6858519,55.1379683 C32.4519683,55.306328 32.2130794,55.4655873 31.9746455,55.6202963 C31.8435979,55.7090265 31.708,55.7932063 31.5724021,55.872836 C31.0950794,56.1672381 30.6132063,56.4388889 30.1358836,56.6727725 C30.0189418,56.733746 29.902,56.7901693 29.7850582,56.8461376 C29.6681164,56.9021058 29.5466243,56.9585291 29.420127,57.0144974 C29.265873,57.0845714 29.111164,57.1500952 28.9569101,57.2110688 C28.8959365,57.2388254 28.835418,57.2624868 28.7744444,57.2811429 C28.5919788,57.3562222 28.404963,57.4258413 28.2224974,57.4868148 C27.993619,57.5714497 27.7592804,57.6415238 27.5304021,57.7065926 C27.3711429,57.7534603 27.2077884,57.7953228 27.0485291,57.8326349 C27.0389735,57.8376402 27.029873,57.8421905 27.0157672,57.8421905 C26.8565079,57.8799577 26.6977037,57.9172698 26.5384444,57.9454815 C26.496582,57.955037 26.4542646,57.9641376 26.4124021,57.9691429 C26.2813545,57.9923492 26.1503069,58.0160106 26.0192593,58.0301164 C25.8322434,58.058328 25.6447725,58.0815344 25.4577566,58.0906349 C25.3922328,58.1001905 25.3317143,58.1047407 25.2661905,58.1047407 C25.1164868,58.1138413 24.9667831,58.1188466 24.8216296,58.1188466 L24.8075238,58.1188466 C24.6628254,58.1188466 24.517672,58.1138413 24.3725185,58.1047407 C24.3165503,58.1047407 24.260127,58.1001905 24.2041587,58.0906349 C24.0731111,58.0860847 23.9375132,58.0719788 23.7969101,58.0533228 C23.7691534,58.0533228 23.7363915,58.0487725 23.7081799,58.0437672 C23.5352698,58.0205608 23.3619048,57.9923492 23.1844444,57.9595873 C23.0347407,57.9359259 22.885037,57.903164 22.730328,57.8658519 C21.9303915,57.6833862 21.1072487,57.4071852 20.2745503,57.0381587 C19.5633439,56.7246455 18.843037,56.3456085 18.1272804,55.9060529 C17.7673545,55.6862751 17.4069735,55.4523915 17.0511429,55.2044021 C16.8732275,55.0779048 16.6957672,54.9514074 16.5178519,54.8203598 C15.9608995,54.4131111 15.4089524,53.9690053 14.8665608,53.4916825 C14.7168571,53.3560847 14.5671534,53.2204868 14.4174497,53.0803386 C14.267746,52.9447407 14.1180423,52.8041376 13.9728889,52.6685397 C13.6079577,52.3177143 13.252582,51.9532381 12.9063069,51.5742011 C12.770709,51.4290476 12.6351111,51.2797989 12.4990582,51.1250899 C12.1250265,50.7041905 11.7600952,50.2691852 11.4138201,49.8150688 C11.2782222,49.6517143 11.1517249,49.4833545 11.0256825,49.3145397 C10.5529101,48.6875132 10.104254,48.0327302 9.68289947,47.3538307 C9.57050794,47.1718201 9.4581164,46.9848042 9.35073016,46.8018836 C9.21968254,46.5821058 9.09364021,46.3573228 8.96714286,46.1329947 C8.49937566,45.2907407 8.06892063,44.4161799 7.69488889,43.5129524 C7.63846561,43.3819048 7.58249735,43.2508571 7.53562963,43.1202646 C7.46100529,42.9519048 7.39548148,42.7785397 7.33450794,42.6101799 C7.24077249,42.3621905 7.15204233,42.1142011 7.06786243,41.8662116 C6.98368254,41.6182222 6.90405291,41.3652275 6.82442328,41.1131429 C6.74979894,40.8697037 6.67972487,40.6267196 6.61420106,40.3787302 C6.53912169,40.1166349 6.46904762,39.8499894 6.40807407,39.5787937 C6.40352381,39.550582 6.39396825,39.5223704 6.38941799,39.4941587 C6.30068783,39.120127 6.2210582,38.7410899 6.15098413,38.3575026 C6.05724868,37.8524233 5.98262434,37.3377884 5.92665608,36.8181481 C5.90299471,36.6547937 5.88888889,36.4905291 5.8752381,36.3271746 C5.85658201,36.1538095 5.84247619,35.9854497 5.83292063,35.8125397 C5.80971429,35.4990265 5.79560847,35.1805079 5.78605291,34.8624444 C5.78150265,34.6567725 5.77649735,34.4511005 5.77649735,34.2454286 L5.77649735,20.0181164 C5.77649735,9.50564021 14.2955026,0.982084656 24.8075238,0.972984127 L24.8266349,0.972984127 C26.2768042,0.972984127 27.6896614,1.13633862 29.0460952,1.44075132 C30.2860423,1.72104762 31.4791217,2.12374603 32.6107725,2.63337566 C34.1546772,3.3254709 35.5907407,4.21504762 36.8821058,5.27707937 C37.9677989,6.16574603 38.9547513,7.16680423 39.8156614,8.27115344 C42.3233122,11.4663492 43.834,15.4805926 43.8667619,19.8497566 C43.8713122,19.9057249 43.8713122,19.9616931 43.8713122,20.0181164 Z" fill="#ECC19C"></path>
                        <path d="M49.6396825,87.3433757 L49.6396825,87.3479259 L0.00767195767,87.3479259 L0.00767195767,87.3433757 C0.00767195767,84.5408677 0.470888889,81.8416508 1.33179894,79.3294497 C1.48605291,78.8757884 1.6544127,78.4266772 1.83733333,77.9821164 L1.83733333,77.9771111 C2.01524868,77.5325503 2.21136508,77.097545 2.41703704,76.667545 C3.23562963,74.9411746 4.25579894,73.3267407 5.43932275,71.8488148 C5.73873016,71.4788783 6.04268783,71.1184974 6.35620106,70.7726772 C6.51045503,70.5947619 6.67426455,70.4223069 6.83807407,70.2489418 C7.00142857,70.080582 7.16569312,69.9122222 7.33359788,69.7438624 C8.17130159,68.9061587 9.06906878,68.1394392 10.0146138,67.4327831 C10.4869312,67.0819577 10.964254,66.7543386 11.4602328,66.4367302 C11.9562116,66.1232169 12.461291,65.8233545 12.9759259,65.5430582 C12.9854815,65.5339577 12.994582,65.5339577 12.994582,65.5339577 C13.1957037,65.4261164 13.3922751,65.3091746 13.5888466,65.1876825 C14.1735556,64.8368571 14.7350582,64.4482646 15.2683492,64.0182646 C17.5280106,62.2218201 19.2775873,59.8074497 20.2740952,57.0381587 C20.8683598,55.3818624 21.1909735,53.5995238 21.1909735,51.7375556 L24.8070688,51.7562116 L28.526455,51.7753228 C28.526455,53.6136296 28.8399683,55.3773122 29.420127,57.0149524 C30.4025291,59.7937989 32.1475556,62.2172698 34.4072169,64.0228148 C34.7439365,64.2990159 35.0856614,64.5515556 35.4455873,64.7904444 C35.4833545,64.8182011 35.5156614,64.8414074 35.5534286,64.8650688 C35.7217884,64.9774603 35.8901481,65.0893968 36.0680635,65.1926878 C36.2596296,65.3096296 36.4562011,65.4265714 36.6527725,65.5344127 C36.6855344,65.5435132 36.713746,65.557619 36.7369524,65.5762751 C37.1487513,65.8056085 37.555545,66.0440423 37.9532381,66.2920317 C38.1452593,66.4089735 38.3368254,66.5304656 38.5238413,66.6660635 C38.9124339,66.9140529 39.2910159,67.1857037 39.6609524,67.466455 C39.6609524,67.4710053 39.6655026,67.4710053 39.6655026,67.4710053 L39.6700529,67.4710053 C40.1428254,67.8218307 40.601037,68.1963175 41.0501481,68.5799048 C41.4992593,68.9639471 41.9297143,69.3657354 42.3460635,69.7825397 C46.8558307,74.2722857 49.6396825,80.4761164 49.6396825,87.3433757 Z" fill="#ECC19C"></path>
                        <path d="M49.6378624,87.3415556 L0.00630687831,87.3415556 C0.00630687831,84.5390476 0.46952381,81.8393757 1.33043386,79.3276296 C1.48468783,78.8739683 1.65350265,78.4248571 1.83551323,77.9802963 L1.83551323,77.975291 C2.01342857,77.5307302 2.21,77.0957249 2.41567196,76.6652698 C3.23426455,74.9393545 4.25397884,73.3249206 5.43795767,71.8465397 C5.73736508,71.4770582 6.04177778,71.1166772 6.35483598,70.7708571 C6.50908995,70.5929418 6.67289947,70.4200317 6.83670899,70.2471217 C7.00051852,70.0787619 7.16432804,69.9104021 7.33268783,69.7420423 C8.16993651,68.9043386 9.06815873,68.137619 10.0132487,67.430963 C10.4860212,67.0801376 10.9628889,66.7525185 11.4588677,66.434455 C11.7159577,66.2711005 11.9735026,66.1118413 12.2351429,65.9575873 C12.478582,65.8124339 12.7265714,65.6718307 12.9745608,65.5362328 C12.9841164,65.5266772 12.9932169,65.5316825 12.9932169,65.5316825 L12.9932169,65.5266772 C13.1943386,65.4142857 13.3909101,65.3023492 13.5874815,65.1849524 C14.1721905,64.8295767 14.7336931,64.4364339 15.2574286,64.0059788 C15.2619788,64.0109841 15.2619788,64.0109841 15.2669841,64.0155344 C17.690455,66.4949735 21.0635661,68.034328 24.8061587,68.0438836 L24.8439259,68.0438836 C28.5865185,68.0438836 31.9732804,66.4999788 34.4063069,64.0205397 L34.4108571,64.0155344 C34.7430265,64.2917354 35.0893016,64.5492804 35.4446772,64.7877143 C35.4819894,64.8154709 35.5147513,64.8386772 35.5520635,64.8623386 C35.7204233,64.9747302 35.8937884,65.0821164 36.0666984,65.1899577 C36.2582646,65.3068995 36.455291,65.419291 36.6514074,65.5266772 C36.6841693,65.5362328 36.7078307,65.5548889 36.7355873,65.5689947 C36.9553651,65.6909418 37.1801481,65.8169841 37.3953757,65.9475767 C37.5828466,66.0599683 37.7698624,66.1723598 37.952328,66.2893016 C38.1438942,66.4062434 38.3359153,66.5277354 38.5229312,66.6633333 C38.9115238,66.9113228 39.2901058,67.1829735 39.6595873,67.4637249 L39.6691429,67.4637249 C40.1414603,67.8191005 40.6046772,68.189037 41.0492381,68.5767196 C41.4983492,68.9607619 41.9288042,69.3630053 42.3451534,69.7793545 C46.8544656,74.2700106 49.6378624,80.4733862 49.6378624,87.3415556 Z" fill="#417505"></path>
                        <path d="M37.3949206,65.9471217 L36.8802857,66.4713122 C33.6709841,69.7411323 29.385545,71.542582 24.8148042,71.542582 C20.1976508,71.5330265 15.9213122,69.7274815 12.7261164,66.4622116 L12.2346878,65.9571323 C12.478127,65.8119788 12.7261164,65.6713757 12.9741058,65.5357778 C12.9836614,65.5262222 12.9927619,65.5312275 12.9927619,65.5312275 L12.9927619,65.5262222 C13.1938836,65.4138307 13.390455,65.3018942 13.5870265,65.1844974 C14.1717354,64.8291217 14.7332381,64.4359788 15.2569735,64.0055238 C15.2615238,64.0105291 15.2615238,64.0105291 15.2665291,64.0150794 C17.69,66.4945185 21.0631111,68.033873 24.8057037,68.0434286 L24.8434709,68.0434286 C28.5860635,68.0434286 31.9728254,66.4995238 34.4058519,64.0200847 L34.4104021,64.0150794 C34.7425714,64.2912804 35.0888466,64.5488254 35.4442222,64.7872593 C35.4815344,64.8150159 35.5142963,64.8382222 35.5516085,64.8618836 C35.7199683,64.9742751 35.8933333,65.0816614 36.0662434,65.1895026 C36.2578095,65.3064444 36.454836,65.418836 36.6509524,65.5262222 C36.6837143,65.5357778 36.7073757,65.5544339 36.7351323,65.5685397 C36.9553651,65.6904868 37.1796931,65.8165291 37.3949206,65.9471217 Z" fill="#29361A"></path>
                        <path d="M41.609164,25.6671975 C41.609164,25.5889404 41.5481905,25.5200742 41.4685608,25.5106833 C40.7951217,25.4096199 37.7632804,25 34.5025608,25 C30.8018307,25 26.025418,26.1403174 25.1927196,26.1403174 L24.4537566,26.1403174 C24.065164,26.1403174 22.8211217,25.8921307 21.2303492,25.6300813 C19.4011429,25.3264438 17.1182751,25 15.1439153,25 C12.7582116,25 10.493545,25.2209085 9.1885291,25.3769755 C8.71120635,25.4324262 8.36038095,25.4825108 8.17791534,25.5102361 C8.09828571,25.519627 8.03731217,25.5884932 8.03731217,25.6667503 L8,27.6204941 C8,27.6893603 8.04231746,27.7492829 8.10738624,27.7770082 L8.33171429,27.8552653 C8.6638836,27.9795823 8.63612698,33.8689862 10.4230159,35.3402192 C11.4850476,36.2090964 12.4301376,36.7054698 16.411164,36.7054698 C18.7176931,36.7054698 20.1678624,36.0941703 21.5434074,34.2687681 C22.5353651,32.958521 23.4144762,29.8595408 23.4144762,29.8595408 C23.6811217,28.581491 24.649418,28.4804276 24.804127,28.4710367 C24.8136825,28.4710367 24.8227831,28.4710367 24.8227831,28.4710367 C24.8550899,28.4710367 25.9457884,28.4893712 26.2310899,29.8595408 C26.2310899,29.8595408 27.1106561,32.958521 28.1021587,34.2687681 C29.4772487,36.0941703 30.927873,36.7054698 33.2339471,36.7054698 C37.2154286,36.7054698 38.1600635,36.2090964 39.2220952,35.3402192 C41.0094392,33.8689862 40.9812275,27.9795823 41.3133968,27.8552653 L41.5381799,27.7770082 C41.6032487,27.7492829 41.6455661,27.6898075 41.6455661,27.6204941 L41.609164,25.6671975 Z M21.5438624,32.6369963 C20.9591534,33.997775 19.4480106,35.754311 17.3193968,35.8598462 C10.9335556,36.1768992 10.6386984,34.4252822 10.2268995,33.0367781 C9.81055026,31.648274 9.70316402,30.4296995 9.86651852,29.0411954 C10.0348783,27.6526913 10.390709,26.8388177 11.0318413,26.429645 C11.3075873,26.2503245 11.6074497,26.0893385 12.3746243,25.9744124 C13.0621693,25.873349 14.1242011,25.8134264 15.8924339,25.8134264 C16.9166984,25.8134264 17.8758942,25.8916835 18.7317989,26.0294159 C21.0055661,26.3880569 22.5399153,27.146927 22.5399153,27.895959 C22.5399153,28.4070895 22.4088677,30.6228827 21.5438624,32.6369963 Z M39.4191217,33.0367781 C39.0077778,34.4252822 38.7129206,36.1768992 32.3270794,35.8598462 C30.1984656,35.754311 28.6873228,33.997775 28.1026138,32.6369963 C27.2371534,30.6233299 27.1065608,28.4070895 27.1065608,27.8968534 C27.1065608,26.8669902 30.016455,25.8138736 33.7540423,25.8138736 C37.4920847,25.8138736 38.0904444,26.0897857 38.6150899,26.4300922 C39.2557672,26.8392649 39.6111429,27.6531385 39.7799577,29.0416426 C39.9437672,30.4301467 39.8359259,31.6487212 39.4191217,33.0367781 Z" fill="#1A1A1A"></path>
                    </g>
                </g>
            </g>
        </g>
    </g>
</svg>