<?xml version="1.0" encoding="UTF-8"?>
<svg width="85px" height="85px" viewBox="0 0 85 85" version="1.1" xmlns="http://www.w3.org/2000/svg" xmlns:xlink="http://www.w3.org/1999/xlink">
    <!-- Generator: Sketch 50.2 (55047) - http://www.bohemiancoding.com/sketch -->
    <title>Group</title>
    <desc>Created with Sketch.</desc>
    <defs>
        <rect id="path-1" x="0" y="0" width="85" height="85"></rect>
    </defs>
    <g id="Page-1" stroke="none" stroke-width="1" fill="none" fill-rule="evenodd">
        <g id="1440-and-above" transform="translate(-1021.000000, -216.000000)">
            <g id="Group" transform="translate(1021.000000, 216.000000)">
                <mask id="mask-2" fill="white">
                    <use xlink:href="#path-1"></use>
                </mask>
                <use id="Mask" fill="#D4DCE6" xlink:href="#path-1"></use>
                <g mask="url(#mask-2)">
                    <g transform="translate(9.000000, 8.000000)">
                        <polygon id="Shape" fill="#421800" fill-rule="nonzero" points="58.4986561 38.5684974 58.4986561 78.3432698 8.0994709 77.485545 8.0994709 37.7107725"></polygon>
                        <path d="M52.2998307,20.6022328 L52.2998307,32.3305397 C52.2998307,32.5362116 52.2948254,32.7423386 52.2907302,32.9480106 C52.2857249,33.1163704 52.2811746,33.2801799 52.271619,33.4485397 C52.2670688,33.5982434 52.2579683,33.7479471 52.2438624,33.8976508 C52.2393122,34.005037 52.2302116,34.1128783 52.2206561,34.2207196 C52.2156508,34.2862434 52.2115556,34.3467619 52.202,34.4122857 C52.1928995,34.5292275 52.1828889,34.6507196 52.1642328,34.7676614 C52.1455767,34.9924444 52.1173651,35.2122222 52.0846032,35.4365503 C52.0800529,35.4929735 52.0709524,35.5489418 52.0613968,35.6049101 C52.047291,35.7173016 52.0286349,35.8296931 52.0099788,35.9416296 L52.0099788,35.9557354 C51.9822222,36.1190899 51.9540106,36.2783492 51.9253439,36.4421587 C51.8834815,36.6669418 51.841164,36.8912698 51.7947513,37.1110476 C51.789746,37.1206032 51.789746,37.1297037 51.7856508,37.1392593 C51.7806455,37.1720212 51.7760952,37.2047831 51.7665397,37.237545 C51.7619894,37.2471005 51.7619894,37.2562011 51.7574392,37.2657566 C51.7342328,37.3877037 51.7064762,37.5041905 51.6778095,37.6211323 C51.668709,37.6725503 51.6591534,37.7244233 51.6404974,37.7753862 C51.6268466,37.8595661 51.6031852,37.943746 51.5845291,38.0279259 C51.5704233,38.0747937 51.5608677,38.1262116 51.5422116,38.1730794 C51.5331111,38.2153968 51.5190053,38.2572593 51.5094497,38.2950265 C51.411164,38.6786138 51.2992275,39.0531005 51.1818307,39.4271323 C51.1258624,39.6050476 51.0698942,39.7779577 51.0089206,39.955873 C51.0039153,39.9745291 50.9948148,39.9931852 50.9902646,40.0118413 C50.9338413,40.1711005 50.877873,40.3299048 50.8219048,40.489164 C50.8032487,40.5360317 50.7845926,40.5828995 50.7654815,40.6343175 C50.7095132,40.7840212 50.653545,40.9337249 50.5925714,41.0834286 C50.5224974,41.2658942 50.447418,41.4438095 50.3727937,41.6217249 C50.3072698,41.7809841 50.2371958,41.9397884 50.1671217,42.0985926 C50.1575661,42.1268042 50.1434603,42.1500106 50.1343598,42.1782222 C50.0547302,42.346582 49.9801058,42.5149418 49.9004762,42.6787513 C49.8208466,42.8516614 49.7366667,43.0250265 49.6474815,43.1979365 C49.4791217,43.5396614 49.2971111,43.8809312 49.1141905,44.2131005 L48.8616508,44.6622116 C48.1408889,45.9017037 47.3409524,47.0670265 46.4709418,48.142709 C46.353545,48.297418 46.2325079,48.4471217 46.1055556,48.5918201 C45.9326455,48.8024974 45.7547302,49.0081693 45.5772698,49.209291 C45.4275661,49.3776508 45.2728571,49.5505608 45.1135979,49.7143704 C45.1090476,49.7239259 45.1040423,49.7284762 45.0949418,49.7375767 C44.6462857,50.2199048 44.187619,50.6781164 43.7198519,51.1085714 C43.6261164,51.2023069 43.5278307,51.2864868 43.429545,51.3752169 C43.2702857,51.5203704 43.1114815,51.6609735 42.947672,51.7965714 C42.8216296,51.908963 42.690582,52.0163492 42.5595344,52.1241905 C42.2228148,52.3999365 41.8860952,52.666582 41.5448254,52.9145714 C41.4042222,53.0219577 41.2590688,53.1252487 41.1143704,53.2235344 C40.8804868,53.3918942 40.6420529,53.5511534 40.403164,53.7054074 C40.2721164,53.7941376 40.1365185,53.8787725 40.0004656,53.9584021 C39.5231429,54.2532593 39.0417249,54.524455 38.5644021,54.7583386 C38.4474603,54.8193122 38.3305185,54.8752804 38.2135767,54.9317037 C38.0961799,54.987672 37.9751429,55.0436402 37.8481905,55.1000635 C37.6939365,55.1701376 37.5396825,55.2356614 37.3849735,55.2966349 C37.324,55.3248466 37.2630265,55.3480529 37.202963,55.366709 C37.0204974,55.4413333 36.8334815,55.5114074 36.6505608,55.572381 C36.4212275,55.6570159 36.1873439,55.7270899 35.9584656,55.7921587 C35.7992063,55.8390265 35.6358519,55.8808889 35.4765926,55.9182011 C35.467037,55.9232063 35.4574815,55.9277566 35.4438307,55.9277566 C35.2845714,55.9650688 35.1257672,56.002836 34.9665079,56.0310476 C34.9241905,56.0406032 34.882328,56.0497037 34.8404656,56.054254 C34.709418,56.0779153 34.5783704,56.1015767 34.4473228,56.1152275 C34.2603069,56.1438942 34.073291,56.1666455 33.8862751,56.1762011 C33.8212063,56.1853016 33.7602328,56.1903069 33.694254,56.1903069 C33.5445503,56.1994074 33.3998519,56.2039577 33.2546984,56.2039577 L33.2360423,56.2039577 C33.0908889,56.2039577 32.9457354,56.1994074 32.800582,56.1903069 C32.7446138,56.1903069 32.6886455,56.1853016 32.6326772,56.1762011 C32.5016296,56.1716508 32.3655767,56.157545 32.2254286,56.1388889 C32.1967619,56.1388889 32.164455,56.1338836 32.1366984,56.1297884 C31.9633333,56.106127 31.7899683,56.0783704 31.6125079,56.0451534 C31.4628042,56.0219471 31.3135556,55.9891852 31.1588466,55.951873 C30.3589101,55.7694074 29.5357672,55.4932063 28.7030688,55.1237249 C27.9918624,54.8106667 27.2715556,54.4316296 26.5557989,53.9920741 C26.195418,53.7722963 25.835037,53.5379577 25.4796614,53.2899683 C25.301746,53.1639259 25.1242857,53.0374286 24.9463704,52.906381 C24.389418,52.4991323 23.8374709,52.0550265 23.2946243,51.5777037 C23.1453757,51.4421058 22.995672,51.3060529 22.8459683,51.1663598 C22.6962646,51.0303069 22.5465608,50.8901587 22.4014074,50.7545608 C22.0551323,50.4228466 21.7184127,50.0811217 21.3953439,49.7207407 C21.3716825,49.7020847 21.3530265,49.6788783 21.3343704,49.6602222 C21.1987725,49.5150688 21.0627196,49.3649101 20.9275767,49.2111111 C20.553545,48.7897566 20.1886138,48.3547513 19.8423386,47.9010899 C19.7062857,47.7372804 19.5802434,47.5693757 19.453746,47.4001058 C18.9809735,46.7735344 18.5323175,46.1187513 18.110963,45.4398519 C17.9990265,45.2573862 17.8866349,45.0703704 17.7792487,44.8879048 C17.6482011,44.668127 17.5221587,44.4433439 17.3956614,44.2190159 C16.9278942,43.3767619 16.4969841,42.5022011 16.1229524,41.5989735 C16.0669841,41.4679259 16.0105608,41.3368783 15.9636931,41.2058307 C15.8886138,41.0374709 15.8230899,40.8641058 15.7625714,40.6962011 C15.669291,40.4477566 15.5805608,40.2002222 15.4959259,39.9522328 C15.411746,39.7042434 15.3325714,39.4517037 15.2529418,39.199164 C15.1778624,38.9557249 15.1077884,38.7127407 15.0422646,38.4647513 C14.9671852,38.2026561 14.8971111,37.9360106 14.8365926,37.6648148 C14.8315873,37.6366032 14.8224868,37.6083915 14.8174815,37.5806349 C14.7287513,37.2066032 14.6495767,36.8275661 14.5795026,36.4439788 C14.4857672,35.9388995 14.4111429,35.4242646 14.3547196,34.9050794 C14.3315132,34.7412698 14.3174074,34.5774603 14.3033016,34.4136508 C14.2846455,34.2407407 14.2709947,34.072381 14.2614392,33.8990159 C14.2377778,33.5855026 14.223672,33.2674392 14.2141164,32.9493757 C14.2095661,32.7437037 14.2045608,32.5375767 14.2045608,32.3319048 L14.2045608,20.6022328 C14.2045608,10.4364868 22.1720741,2.1277037 32.2063175,1.58485714 C32.2254286,1.57985185 32.2390794,1.57985185 32.2577354,1.57985185 C32.3887831,1.57530159 32.5198307,1.5702963 32.6508783,1.56574603 C32.8474497,1.56119577 33.0390159,1.55619048 33.2355873,1.55619048 L33.2542434,1.55619048 C33.4549101,1.55619048 33.6564868,1.56074074 33.8576085,1.56574603 C34.0118624,1.5702963 34.1665714,1.57530159 34.3208254,1.58485714 L34.3349312,1.58485714 C35.4060635,1.64537566 36.4589947,1.79507937 37.4737037,2.0244127 C38.7136508,2.30516402 39.9067302,2.70740741 41.038381,3.21749206 C42.5827407,3.9095873 44.0188042,4.79870899 45.3101693,5.86074074 C46.3954074,6.74986243 47.3828148,7.75092063 48.2432698,8.85481481 C50.7509206,12.0500106 52.2616085,16.064254 52.2943704,20.433418 C52.2998307,20.4898413 52.2998307,20.5458095 52.2998307,20.6022328 Z" id="Shape" fill="#F0D0B4" fill-rule="nonzero"></path>
                        <path d="M58.0682011,85.4289418 L58.0682011,85.4339471 L8.43619048,85.4339471 L8.43619048,85.4289418 C8.43619048,82.6546455 8.88985185,79.9786349 9.73665608,77.485545 C9.74621164,77.4618836 9.7507619,77.4382222 9.76031746,77.4154709 C9.91457143,76.9618095 10.0829312,76.5126984 10.2653968,76.0681376 L10.2653968,76.0631323 C10.4433122,75.6185714 10.6394286,75.1835661 10.8451005,74.7531111 C11.6641481,73.0267407 12.6838624,71.4127619 13.8673862,69.934381 C14.1667937,69.5648995 14.4712063,69.2045185 14.7847196,68.8586984 C14.9389735,68.6807831 15.1027831,68.507873 15.2665926,68.334963 C15.4304021,68.1666032 15.5942116,67.9982434 15.7625714,67.8298836 C16.6002751,66.9921799 17.4980423,66.2254603 18.4435873,65.5188042 C18.9159048,65.1679788 19.3932275,64.8403598 19.8892063,64.5222963 C19.9547302,64.4804339 20.020254,64.4381164 20.0857778,64.4008042 C20.2682434,64.2834074 20.450709,64.1714709 20.6381799,64.0640847 C20.8907196,63.914381 21.1478095,63.7692275 21.4053545,63.6286243 C21.4149101,63.6195238 21.4240106,63.6195238 21.4240106,63.6195238 C21.6251323,63.5121376 21.8217037,63.3951958 22.0182751,63.2732487 C22.6029841,62.9224233 23.1649418,62.5342857 23.6977778,62.1038307 C25.9574392,60.3078413 27.7070159,57.8934709 28.7035238,55.1237249 C28.9938307,54.3096825 29.222709,53.4633333 29.376963,52.5933228 C29.5362222,51.6946455 29.6204021,50.7686667 29.6204021,49.8235767 L33.2364974,49.8422328 L33.2970159,49.8422328 L36.9554286,49.8608889 C36.9554286,50.7873228 37.0350582,51.6946455 37.1897672,52.5792169 C37.3394709,53.4492275 37.5637989,54.2914815 37.8491005,55.1009735 C38.8315026,57.8793651 40.5765291,60.303291 42.8361905,62.108836 C43.1729101,62.384582 43.5146349,62.6371217 43.8745608,62.8760106 C43.912328,62.9046772 43.9446349,62.9274286 43.9824021,62.9510899 C44.1507619,63.0634815 44.3191217,63.175418 44.497037,63.278709 C44.6886032,63.3956508 44.8856296,63.5125926 45.081746,63.6199788 C45.1140529,63.6290794 45.1427196,63.6436402 45.1659259,63.6622963 C45.5777249,63.8916296 45.9849735,64.1300635 46.3826667,64.3780529 C46.4149735,64.396709 46.4431852,64.4153651 46.4759471,64.4390265 C46.6352063,64.5373122 46.7990159,64.6396931 46.9532698,64.7525397 C47.3418624,65.0005291 47.7208995,65.2721799 48.0899259,65.5529312 C48.0899259,65.5574815 48.0949312,65.5574815 48.0949312,65.5574815 L48.0994815,65.5574815 C48.572254,65.9083069 49.0304656,66.2827937 49.4795767,66.666381 C49.9286878,67.0499683 50.3591429,67.4526667 50.7754921,67.8690159 C53.4610582,70.5400212 55.5332487,73.8244021 56.7686455,77.4878201 C57.6095344,79.9790899 58.0682011,82.6505503 58.0682011,85.4289418 Z" id="Shape" fill="#F0D0B4" fill-rule="nonzero"></path>
                        <path d="M58.0682011,85.4289418 L8.43619048,85.4289418 C8.43619048,82.6546455 8.88985185,79.9786349 9.73665608,77.485545 C9.74621164,77.4618836 9.7507619,77.4382222 9.76031746,77.4154709 C9.91457143,76.9618095 10.0829312,76.5126984 10.2653968,76.0681376 L10.2653968,76.0631323 C10.4433122,75.6185714 10.6394286,75.1835661 10.8451005,74.7531111 C11.6641481,73.0267407 12.6838624,71.4127619 13.8673862,69.934381 C14.1667937,69.5648995 14.4712063,69.2045185 14.7847196,68.8586984 C14.9389735,68.6807831 15.1027831,68.507873 15.2665926,68.334963 C15.4304021,68.1666032 15.5942116,67.9982434 15.7625714,67.8298836 C16.6002751,66.9921799 17.4980423,66.2254603 18.4435873,65.5188042 C18.9159048,65.1679788 19.3932275,64.8403598 19.8892063,64.5222963 C19.9547302,64.4804339 20.020254,64.4381164 20.0857778,64.4008042 C20.2682434,64.2834074 20.450709,64.1714709 20.6381799,64.0640847 C20.8907196,63.9093757 21.1478095,63.7646772 21.4053545,63.6240741 C21.4149101,63.6145185 21.4240106,63.6190688 21.4240106,63.6190688 L21.4240106,63.6145185 C21.6251323,63.502127 21.8217037,63.3901905 22.0182751,63.2727937 C22.6029841,62.917418 23.1649418,62.5242751 23.6886772,62.0938201 C23.6932275,62.0988254 23.6932275,62.0988254 23.6982328,62.1033757 C26.1212487,64.5828148 29.4943598,66.1221693 33.2374074,66.1317249 L33.2979259,66.1317249 C37.031418,66.1267196 40.4090794,64.5832698 42.8371005,62.108381 L42.8421058,62.1033757 C43.1738201,62.3791217 43.5200952,62.6366667 43.8754709,62.8751005 C43.9132381,62.9037672 43.945545,62.9265185 43.9833122,62.9501799 C44.151672,63.0625714 44.324582,63.1699577 44.4979471,63.2777989 C44.6895132,63.3947407 44.8865397,63.5071323 45.0826561,63.6145185 C45.114963,63.6240741 45.1386243,63.6427302 45.166836,63.656836 C45.5786349,63.8857143 45.9858836,64.1241481 46.3835767,64.3771429 C46.4158836,64.3957989 46.4440952,64.414455 46.4768571,64.4381164 C46.6361164,64.5364021 46.7999259,64.6387831 46.9541799,64.7516296 C47.3427725,64.999619 47.7218095,65.2712698 48.090836,65.5520212 L48.1003915,65.5520212 C48.573164,65.9073968 49.036381,66.2768783 49.4804868,66.6650159 C49.9295979,67.0486032 50.3600529,67.4513016 50.7764021,67.8676508 C53.4619683,70.5386561 55.5341587,73.823037 56.7695556,77.486455 C57.6095344,79.9790899 58.0682011,82.6505503 58.0682011,85.4289418 Z" id="Shape" fill="#B34FC5" fill-rule="nonzero"></path>
                        <path d="M58.6064974,71.7044339 C58.5737354,71.7185397 58.5364233,71.7331005 58.4986561,71.7371958 C56.038328,72.377873 46.3353439,60.6855132 46.2370582,48.4284656 C46.2325079,47.4410582 46.2839259,46.4491005 46.4104233,45.4530476 C46.7380423,42.8097989 48.0107513,40.2693862 49.0677778,37.7103175 C49.9004762,35.6845397 50.6066772,33.6542116 50.6066772,31.5583598 C50.6066772,20.330582 47.350963,23.9889947 38.270455,17.9303175 C36.0763175,16.4705926 34.5183069,15.272963 33.2970159,14.2996614 C29.9243598,11.6236508 29.068,10.6649101 24.441291,10.6649101 C18.5555238,10.6649101 16.2166878,20.8866243 15.5477989,25.2562434 C14.8274921,29.9580317 14.8179365,37.5788148 17.7514921,44.8346667 C20.0243492,50.4569735 20.0248042,55.969164 15.5477989,62.0929101 C13.8682963,64.3903386 11.2951217,72.1512698 8.09992593,74.6539153 C7.10387302,75.4351958 6.0509418,75.7068466 4.94249735,75.1403386 C-3.78764021,70.6728889 1.46609524,56.3336402 4.08613757,47.3559683 C6.90730159,37.6953016 7.75865608,27.9035873 9.80764021,18.1491852 C12.1182646,7.16621164 21.5213862,0.471407407 25.3204021,3.18518519 C26.5881058,0.911417989 29.9052487,0.0600634921 33.2965608,0.0600634921 C35.7810053,0.0600634921 38.3118624,0.523280423 40.1083069,1.22038095 C53.9793333,6.60516402 54.213672,19.4610265 54.9526349,24.8080423 C55.5610053,29.2245291 57.7360317,33.350709 58.4986561,37.7107725 L58.4986561,37.7248783 C58.6624656,38.6417566 58.7607513,39.577291 58.7657566,40.522381 C58.7980635,45.6264127 58.2274603,49.0791534 62.1061058,53.3313757 C65.0483069,56.5547831 62.7982011,69.866127 58.6064974,71.7044339 Z" id="Shape" fill="#421800" fill-rule="nonzero"></path>
                        <g id="Group" stroke-width="1" fill="none" fill-rule="evenodd" transform="translate(20.021164, 61.883598)">
                            <path d="M13.2753968,4.24767196 L13.261746,4.27133333 L13.2567407,4.28043386 C11.937619,6.32941799 9.75303704,7.396 7.54934392,7.396 C5.75744974,7.396 3.95645503,6.68979894 2.60457143,5.23962963 L0.0641587302,2.51720635 C0.494613757,2.24100529 0.934169312,1.98346032 1.38328042,1.74047619 C1.39283598,1.73092063 1.40193651,1.7354709 1.40193651,1.7354709 L1.40193651,1.73092063 C1.6030582,1.6185291 1.79962963,1.50659259 1.99620106,1.38919577 C2.58091005,1.03382011 3.14286772,0.640677249 3.66660317,0.210222222 C3.67115344,0.215227513 3.67115344,0.215227513 3.67615873,0.219777778 C6.0991746,2.69921693 9.47228571,4.23857143 13.2153333,4.24812698 L13.2753968,4.24812698 L13.2753968,4.24767196 Z" id="Shape" fill="#E7ECF2" fill-rule="nonzero"></path>
                            <path d="M26.454328,2.55406349 L23.9516825,5.2391746 C22.5993439,6.68979894 20.7983492,7.39554497 19.0019048,7.39554497 C16.8032169,7.39554497 14.6136296,6.32896296 13.2990582,4.27997884 L13.2945079,4.27087831 L13.2753968,4.24721693 C17.0088889,4.24221164 20.3865503,2.6987619 22.8145714,0.223873016 L22.8195767,0.218867725 C23.151291,0.494613757 23.4975661,0.75215873 23.8529418,0.990592593 C23.890709,1.01925926 23.9230159,1.04201058 23.9607831,1.06567196 C24.1291429,1.17806349 24.3020529,1.28544974 24.475418,1.39329101 C24.6669841,1.5102328 24.8640106,1.62262434 25.060127,1.73001058 C25.0924339,1.73956614 25.1160952,1.75822222 25.1443069,1.77232804 C25.5561058,2.00120635 25.9633545,2.23964021 26.3610476,2.49263492 C26.3933545,2.51174603 26.4211111,2.53040212 26.454328,2.55406349 Z" id="Shape" fill="#E7ECF2" fill-rule="nonzero"></path>
                        </g>
                    </g>
                </g>
            </g>
        </g>
    </g>
</svg>