<?xml version="1.0" encoding="UTF-8" standalone="no"?>
<!-- Generator: Adobe Illustrator 16.0.0, SVG Export Plug-In . SVG Version: 6.00 Build 0)  -->
<!DOCTYPE svg  PUBLIC '-//W3C//DTD SVG 1.1//EN'  'http://www.w3.org/Graphics/SVG/1.1/DTD/svg11.dtd'>
<svg id="Layer_1" xmlns="http://www.w3.org/2000/svg" xml:space="preserve" height="52px" viewBox="0 0 52 52" width="52px" version="1.1" y="0px" x="0px" xmlns:xlink="http://www.w3.org/1999/xlink" enable-background="new 0 0 52 52">
	<circle cy="26.001" cx="26" r="25.772" fill="#339995"/>
		<path d="m25.999 51.772c5.411 0 10.432-1.67 14.578-4.52-1.383-6.436-7.378-11.283-14.578-11.283-7.201 0-13.195 4.848-14.576 11.283 4.144 2.851 9.164 4.52 14.576 4.52z" fill="#F7A827"/>
		<path d="m32.51 37.313l-2.268 6.908-4.245-6.291h0.004l-4.244 6.291-2.271-6.908s0.375-0.234 0.654-0.342c0.135-0.051 2.982-1.141 5.861-1.107 3.015 0.035 6.067 1.195 6.067 1.195s0.37 0.149 0.442 0.254z" fill="#fff"/>
		<path d="m28.273 36.548c0 1.154-0.998 2.088-2.229 2.088-1.23 0-2.229-0.934-2.229-2.088v-1.984c0-1.152 0.998-2.088 2.229-2.088s2.229 0.936 2.229 2.088v1.984z" fill="#F4D9BF"/>
		<path d="m28.273 36.29v-1.727c0-1.152-0.998-2.088-2.229-2.088-1.23 0-2.229 0.936-2.229 2.088v1.74s0.629 0.244 2.229 0.244c1.599 0.001 2.229-0.257 2.229-0.257z" fill="#EFCAA6"/>
		<ellipse cy="22.769" cx="16.435" rx="1.99" ry="2.205" fill="#F4D9BF"/>
		<ellipse cy="22.769" cx="35.829" rx="1.991" ry="2.205" fill="#F4D9BF"/>
		<path d="m35.351 27.603c0 4.621-3.747 8.367-8.366 8.367 0 0-0.74 0.045-0.985 0.045-0.246 0-0.984-0.045-0.984-0.045-4.621 0-8.367-3.746-8.367-8.367 0 0-0.102-11.615 2.748-15.793 2.848-4.176 10.317-3.832 13.233 0 2.517 3.31 2.721 15.793 2.721 15.793z" fill="#F4D9BF"/>
		<path d="m17.063 20.218s0.262-2.707 2.07-7.195c0 0 6.703-1.213 13.298 0 0 0 1.246 1.639 2.423 7.195 0 0 2.359-7.064-0.062-10.406-2.427-3.342-3.604-2.227-3.604-2.227s-1.703-3.539-6.159-2.949c-4.455 0.59-4.848 3.08-9.762 1.705 0 0 1.301 2.047 2.059 2.465-0.001 0-3.116 4.978-0.263 11.412z" fill="#634E42"/>
</svg>
