<?xml version="1.0" encoding="UTF-8" standalone="no"?>
<!-- Generator: Adobe Illustrator 16.0.0, SVG Export Plug-In . SVG Version: 6.00 Build 0)  -->
<!DOCTYPE svg  PUBLIC '-//W3C//DTD SVG 1.1//EN'  'http://www.w3.org/Graphics/SVG/1.1/DTD/svg11.dtd'>
<svg id="Layer_1" xmlns="http://www.w3.org/2000/svg" xml:space="preserve" height="52px" viewBox="0 0 52 52" width="52px" version="1.1" y="0px" x="0px" xmlns:xlink="http://www.w3.org/1999/xlink" enable-background="new 0 0 52 52">
	<circle cy="26.001" cx="26" r="25.772" fill="#FFD550"/>
		<ellipse cy="28.647" cx="17.873" rx="5.263" ry="4.994" fill="#634E42"/>
		<ellipse cy="28.647" cx="34.52" rx="5.263" ry="4.994" fill="#634E42"/>
		<path d="m17.503 31.19s-10.559-14.576 2.389-23.479h13.234s13.115 9.02 0.199 25.475l-15.822-1.996z" fill="#634E42"/>
		<path d="m25.999 51.772c5.412 0 10.432-1.67 14.578-4.52-1.383-6.436-7.375-11.283-14.578-11.283-7.201 0-13.195 4.848-14.576 11.283 4.146 2.851 9.166 4.52 14.576 4.52z" fill="#53B4BA"/>
		<path d="m28.274 36.548c0 1.154-0.998 2.088-2.229 2.088-1.232 0-2.23-0.934-2.23-2.088v-1.984c0-1.152 0.998-2.088 2.23-2.088 1.23 0 2.229 0.936 2.229 2.088v1.984z" fill="#F0D5D1"/>
		<polygon points="26.003 44.198 27.272 38.313 25.845 37.655 24.302 38.45" fill="#F0D5D1"/>
		<path d="m28.274 36.29v-1.727c0-1.152-0.998-2.088-2.229-2.088-1.232 0-2.23 0.936-2.23 2.088v1.742s0.631 0.242 2.23 0.242 2.229-0.257 2.229-0.257z" fill="#F2C8BF"/>
		<ellipse cy="22.769" cx="16.437" rx="1.99" ry="2.205" fill="#F0D5D1"/>
		<ellipse cy="22.769" cx="35.829" rx="1.99" ry="2.205" fill="#F0D5D1"/>
		<path d="m35.351 27.604c0 4.619-3.744 8.365-8.365 8.365 0 0-0.74 0.045-0.986 0.045-0.244 0-0.984-0.045-0.984-0.045-4.621 0-8.365-3.746-8.365-8.365 0 0-0.104-11.617 2.746-15.795 2.85-4.176 10.318-3.832 13.234 0 2.516 3.311 2.72 15.795 2.72 15.795z" fill="#F0D5D1"/>
		<path d="m26.448 5.554c-4.373 0.002-15.729 5.264-9.383 14.664 0 0 0.262-2.707 2.068-7.195 0 0-0.08 2.25 7.867 4.141 3.621 0.863 7.283 1.572 7.855 3.055 0 0 4.201-3.896 2.365-7.855-1.391-2.998-5.461-6.812-10.772-6.81z" fill="#634E42"/>
		<path d="m24.202 35.909s0.936 1.332 1.801 8.289c0 0-0.613-2.004-2.646-4.16-1.914-2.029-3.869-2.725-3.869-2.725s1.184-0.707 1.955-1.02c0.691-0.278 1.396-0.509 2.759-0.384" fill="#F9E6E5"/>
		<path d="m26.003 44.198s0.635-1.959 3.062-4.342c2.141-2.1 3.447-2.543 3.447-2.543-0.074-0.105-0.822-0.615-1.553-0.973-0.998-0.49-1.703-0.643-3.127-0.643 0.001 0.001-1.421 2.45-1.829 8.501z" fill="#F9E6E5"/>
		<path d="m30.269 18.214s-1.77-0.273-1.77-1.967c0 0 2.352 2.188 3.418 2.123l-1.648-0.156z" fill="#F3D1BB"/>
</svg>
