<?xml version="1.0" encoding="UTF-8" standalone="no"?>
<!-- Generator: Adobe Illustrator 16.0.0, SVG Export Plug-In . SVG Version: 6.00 Build 0)  -->
<!DOCTYPE svg  PUBLIC '-//W3C//DTD SVG 1.1//EN'  'http://www.w3.org/Graphics/SVG/1.1/DTD/svg11.dtd'>
<svg id="Layer_1" xmlns="http://www.w3.org/2000/svg" xml:space="preserve" height="52px" viewBox="0 0 52 52" width="52px" version="1.1" y="0px" x="0px" xmlns:xlink="http://www.w3.org/1999/xlink" enable-background="new 0 0 52 52">
	<circle cy="26.001" cx="26" r="25.772" fill="#EC6550"/>
		<path d="m26.001 51.772c5.41 0 10.43-1.67 14.576-4.52-1.381-6.436-7.375-11.283-14.576-11.283s-13.195 4.848-14.578 11.283c4.148 2.851 9.168 4.52 14.578 4.52z" fill="#535E6B"/>
		<path d="m27.937 39.19c0 0.939-0.176 2.682-1.07 2.682h-1.73c-0.895 0-1.07-1.742-1.07-2.682v0.98c0-0.939 0.725-1.701 1.617-1.701h0.637c0.893 0 1.617 0.762 1.617 1.701v-0.98z" fill="#EB5D3E"/>
		<path d="m29.519 42.185l-3.52-4.254h0.004l-3.518 4.254-0.697-5.732c1.113-0.297 2.658-0.605 4.213-0.588 1.51 0.018 3.027 0.316 4.168 0.611l-0.65 5.709z" fill="#fff"/>
		<path d="m28.401 36.198c0.176 1.141-0.67 2.215-1.889 2.402-1.217 0.188-2.344-0.586-2.52-1.725l-0.301-1.963c-0.176-1.139 0.67-2.215 1.887-2.4 1.219-0.188 2.346 0.584 2.521 1.725l0.302 1.961z" fill="#E2C7B5"/>
		<path d="m28.276 36.29v-1.727c0-1.152-0.998-2.088-2.23-2.088-1.23 0-2.229 0.936-2.229 2.088v1.742s0.629 0.242 2.229 0.242 2.23-0.257 2.23-0.257z" fill="#EFCAA6"/>
		<path d="m18.427 22.769c0 1.219-0.889 2.205-1.99 2.205-1.098 0-1.988-0.986-1.988-2.205 0-1.217 0.891-2.205 1.988-2.205 1.101-0.001 1.99 0.988 1.99 2.205z" fill="#E2C7B5"/>
		<ellipse cy="22.769" cx="35.831" rx="1.99" ry="2.205" fill="#E2C7B5"/>
		<path d="m35.353 27.604c0 4.619-3.744 8.365-8.365 8.365 0 0-0.74 0.045-0.986 0.045s-0.986-0.045-0.986-0.045c-4.621 0-8.365-3.746-8.365-8.365 0 0-0.104-11.617 2.746-15.793 2.852-4.178 10.32-3.834 13.236 0 2.516 3.309 2.72 15.793 2.72 15.793z" fill="#E2C7B5"/>
		<path d="m18.427 9.257s-3.268 3.861-1.359 10.961c0 0 0.26-2.707 2.068-7.195 0 0 5.961 2.951 13.299 0 0 0 1.246 1.639 2.422 7.195 0 0 1.15-7.256-1.275-10.598-2.424-3.342-3.102-2.572-3.102-2.572s-0.969-1.334-5.449-0.967c-2.184 0.18-5.503 1.178-6.604 3.176z" fill="#634E42"/>
		<path d="m23.138 51.597c0.941 0.104 1.893 0.176 2.863 0.176s1.922-0.072 2.863-0.176l-1.998-10.613h-1.73l-1.998 10.613z" fill="#EB5D3E"/>
		<path d="m16.704 24.974s-1.635 8.604 5.084 10.582c6.771 1.994 9.797-0.68 10.342-1.043 0.543-0.363 4.545-3.064 3.119-9.539 0 0 0.316 7.502-9.203 7.502-9.192 0-9.342-7.502-9.342-7.502z" fill="#634E42"/>
</svg>
