<?xml version="1.0" encoding="UTF-8" standalone="no"?>
<!-- Generator: Adobe Illustrator 16.0.0, SVG Export Plug-In . SVG Version: 6.00 Build 0)  -->
<!DOCTYPE svg  PUBLIC '-//W3C//DTD SVG 1.1//EN'  'http://www.w3.org/Graphics/SVG/1.1/DTD/svg11.dtd'>
<svg id="Layer_1" xmlns="http://www.w3.org/2000/svg" xml:space="preserve" height="52px" viewBox="0 0 52 52" width="52px" version="1.1" y="0px" x="0px" xmlns:xlink="http://www.w3.org/1999/xlink" enable-background="new 0 0 52 52">
	<circle cy="26.001" cx="26" r="25.772" fill="#8A6BA7"/>
		<path d="m16.647 40.718s-12.098-18.309 0.852-31.137h17.707s12.811 13.188 0.145 31.137h-18.704z" fill="#634E42"/>
		<path d="m25.999 51.772c5.412 0 10.432-1.67 14.578-4.52-1.383-6.438-7.375-11.283-14.578-11.283-7.201 0-13.195 4.846-14.576 11.283 4.146 2.851 9.166 4.52 14.576 4.52z" fill="#D05A47"/>
		<path d="m26.001 37.931s0.146 2.062-2.645 2.107-3.869-2.725-3.869-2.725 0.373-0.234 0.652-0.342c0.135-0.051 2.982-1.141 5.861-1.107 3.018 0.035 6.07 1.195 6.07 1.195s0.367 0.146 0.441 0.254-0.254 2.725-3.254 2.725c-3.75 0-3.256-2.107-3.256-2.107z" fill="#F9E6E5"/>
		<path d="m28.274 36.548c0 1.152-0.998 2.088-2.23 2.088-1.23 0-2.229-0.936-2.229-2.088v-1.984c0-1.152 0.998-2.088 2.229-2.088 1.232 0 2.23 0.936 2.23 2.088v1.984z" fill="#F3D1BB"/>
		<path d="m28.274 36.29v-1.727c0-1.152-0.998-2.088-2.23-2.088-1.23 0-2.229 0.936-2.229 2.088v1.74s0.631 0.244 2.229 0.244c1.6 0.001 2.23-0.257 2.23-0.257z" fill="#E8C0A8"/>
		<ellipse cy="22.769" cx="16.437" rx="1.99" ry="2.205" fill="#F3D1BB"/>
		<ellipse cy="22.769" cx="35.829" rx="1.99" ry="2.205" fill="#F3D1BB"/>
		<path d="m35.351 27.603c0 4.621-3.744 8.367-8.365 8.367 0 0-0.738 0.045-0.986 0.045-0.246 0-0.984-0.045-0.984-0.045-4.621 0-8.367-3.746-8.367-8.367 0 0-0.102-11.615 2.748-15.793 2.85-4.176 10.318-3.832 13.234 0 2.516 3.31 2.72 15.793 2.72 15.793z" fill="#F3D1BB"/>
		<path d="m26.448 5.554c-4.375 0.002-15.729 5.264-9.383 14.664 0 0 0.26-2.707 2.068-7.195 0 0 0.117 3.783 8.283 3.965 4.014 0.09 6.262-2.326 7.438 3.23 0 0 4.203-3.896 2.367-7.855-1.392-2.999-5.462-6.813-10.773-6.809z" fill="#634E42"/>
</svg>
